<svg width="1437" height="364" viewBox="0 0 1437 364" fill="none" xmlns="http://www.w3.org/2000/svg">
<path d="M0 364C0 346.879 13.8792 333 31 333H1408C1425.12 333 1439 346.879 1439 364H0Z" fill="#2A2A2A"/>
<path d="M1215.43 255.131V251.361H1213.1C1213.1 251.361 1215.37 250.462 1214.89 247.853L1210.88 225.787H1211.52L1216.48 250.095C1216.84 251.824 1218.19 253.898 1219.88 255.376C1218.4 255.177 1216.87 255.124 1215.43 255.131ZM1205.97 251.361H1203.64V255.131C1202.2 255.124 1200.67 255.177 1199.19 255.376C1200.88 253.898 1202.24 251.824 1202.6 250.095L1207.55 225.787H1208.18L1204.18 247.853C1203.71 250.462 1205.97 251.361 1205.97 251.361ZM747.848 260.405H745.62V250.495H747.848V260.405ZM744.261 260.405H742.025V250.495H744.261V260.405ZM740.673 260.405H738.444V250.495H740.673V260.405ZM788.945 83.5238C789.226 83.5536 789.537 83.5701 789.861 83.5701C790.185 83.5701 790.499 83.5536 790.777 83.5238C792.417 86.8537 793.468 92.6635 793.759 94.4359H792.261C792.261 94.4359 792.172 90.7423 791.59 90.2133C791.005 89.6776 791.59 89.0659 791.058 88.6194C790.522 88.1664 791.058 87.3133 790.714 86.8934C790.373 86.4635 789.861 85.2136 789.861 85.2136C789.861 85.2136 789.351 86.4635 789.011 86.8934C788.667 87.3133 789.196 88.1664 788.667 88.6194C788.135 89.0659 788.717 89.6776 788.135 90.2133C787.549 90.7423 787.453 94.4359 787.453 94.4359H785.955C786.25 92.6668 787.295 86.8768 788.945 83.5238ZM789.861 80.9612L790.4 82.4657C790.228 82.4591 790.043 82.4525 789.861 82.4525C789.672 82.4525 789.494 82.4591 789.322 82.4657L789.861 80.9612ZM788.922 102.706V100.302H790.8V102.706H788.922ZM790.8 104.052V109.504H788.922V104.052H790.8ZM737.088 260.405H734.856V250.495H737.088V260.405ZM733.5 260.405H731.268V250.495H733.5V260.405ZM729.909 260.405H727.677V250.495H729.909V260.405ZM726.325 260.405H724.093V250.495H726.325V260.405ZM722.74 260.405H720.502V250.495H722.74V260.405ZM705.823 176.729H701.709V169.501H705.823V176.729ZM697.705 176.729H693.591V169.501H697.705V176.729ZM689.59 176.729H685.47V169.501H689.59V176.729ZM683.552 258.702V248.339H686.402C686.627 254.595 686.657 258.702 686.657 258.702H683.552ZM682.712 213.513H679.604V203.143H682.047C682.279 204.284 682.5 205.471 682.712 206.685V213.513ZM682.712 224.822H679.604V214.445H682.712V224.822ZM682.712 236.114H679.604V225.738H682.712V236.114ZM682.712 247.41H679.604V237.047H682.712V247.41ZM682.712 258.702H679.604V248.339H682.712V258.702ZM679.597 320.56H666.879L667.197 320.14V318.153H662.987V283.152H679.597V320.56ZM332.904 296.326C332.904 296.326 332.653 283.039 345.49 283.039C358.32 283.039 358.072 296.326 358.072 296.326V318.153H357.126V320.14L357.867 321.129V327.217L357.047 328.037H332.904V296.326ZM334.425 219.386C334.25 219.432 334.065 219.458 333.876 219.458C333.691 219.458 333.506 219.432 333.331 219.386H334.425ZM340.229 219.386C340.053 219.432 339.868 219.458 339.68 219.458C339.491 219.458 339.309 219.432 339.134 219.386H340.229ZM338.589 171.743C339.501 171.743 340.232 172.51 340.232 173.452C340.232 173.922 340.047 174.358 339.749 174.666V175.671H337.428V174.666C337.13 174.358 336.945 173.922 336.945 173.452C336.945 172.51 337.683 171.743 338.589 171.743ZM340.844 233.204H350.136V243.72H340.844V233.204ZM346.035 219.386C345.86 219.432 345.675 219.458 345.49 219.458C345.301 219.458 345.119 219.432 344.944 219.386H346.035ZM340.844 206.096H350.136V214.383C349.765 214.812 349.527 215.378 349.388 215.791C349.365 215.821 349.349 215.851 349.329 215.887C349.177 215.282 348.899 214.657 348.387 214.657C347.877 214.657 347.596 215.275 347.447 215.881C347.434 215.851 347.414 215.821 347.394 215.791C347.146 215.047 346.548 213.781 345.49 213.781C344.422 213.781 343.823 215.067 343.562 215.808C343.549 215.834 343.532 215.851 343.526 215.874C343.37 215.272 343.089 214.657 342.583 214.657C342.074 214.657 341.796 215.282 341.644 215.887C341.628 215.851 341.611 215.821 341.588 215.791C341.449 215.385 341.211 214.816 340.844 214.389V206.096ZM343.939 171.779H347.037V174.613C347.037 174.613 346.819 174.861 346.819 175.466H344.16C344.16 174.861 343.939 174.613 343.939 174.613V171.779ZM351.835 219.386C351.663 219.432 351.478 219.458 351.293 219.458C351.108 219.458 350.923 219.432 350.748 219.386H351.835ZM352.384 171.743C353.29 171.743 354.031 172.51 354.031 173.452C354.031 173.922 353.843 174.358 353.548 174.666V175.671H351.224V174.666C350.926 174.358 350.741 173.922 350.741 173.452C350.741 172.51 351.475 171.743 352.384 171.743ZM357.642 219.386C357.467 219.432 357.288 219.458 357.096 219.458C356.911 219.458 356.723 219.432 356.551 219.386H357.642ZM363.449 219.386C363.277 219.432 363.095 219.458 362.906 219.458C362.718 219.458 362.533 219.432 362.358 219.386H363.449ZM365.803 233.204H371.613V243.72H365.803V233.204ZM369.252 219.386C369.08 219.432 368.895 219.458 368.706 219.458C368.521 219.458 368.336 219.432 368.164 219.386H369.252ZM365.803 206.096H371.613V214.657C371.107 214.657 370.829 215.272 370.671 215.874C370.664 215.851 370.648 215.834 370.634 215.808C370.373 215.067 369.778 213.781 368.706 213.781C367.648 213.781 367.05 215.047 366.802 215.791C366.782 215.821 366.762 215.851 366.742 215.887C366.593 215.282 366.316 214.657 365.803 214.657V206.096ZM375.055 219.386C374.88 219.432 374.702 219.458 374.51 219.458C374.325 219.458 374.139 219.432 373.964 219.386H375.055ZM380.859 219.386C380.684 219.432 380.498 219.458 380.313 219.458C380.128 219.458 379.943 219.432 379.768 219.386H380.859ZM386.669 219.386C386.493 219.432 386.308 219.458 386.123 219.458C385.935 219.458 385.753 219.432 385.578 219.386H386.669ZM392.469 219.386C392.297 219.432 392.115 219.458 391.926 219.458C391.738 219.458 391.553 219.432 391.381 219.386H392.469ZM394.241 233.204H403.536V243.72H394.241V233.204ZM398.272 219.386C398.1 219.432 397.915 219.458 397.73 219.458C397.541 219.458 397.356 219.432 397.184 219.386H398.272ZM404.082 219.386C403.91 219.432 403.722 219.458 403.536 219.458C403.351 219.458 403.166 219.432 402.991 219.386H404.082ZM409.885 219.386C409.713 219.432 409.532 219.458 409.34 219.458C409.151 219.458 408.969 219.432 408.794 219.386H409.885ZM415.689 219.386C415.514 219.432 415.328 219.458 415.143 219.458C414.955 219.458 414.773 219.432 414.598 219.386H415.689ZM501.873 116.832L503.724 119.583L505.295 130.502C491.268 149.803 486.5 183.683 485.894 188.356C485.851 188.706 485.832 188.895 485.832 188.895L480.64 197.975V206.995C479.407 209.155 478.15 211.271 476.857 213.328H476.477V213.943C470.67 223.182 464.42 231.405 458.091 238.69H435.093C458.104 211.992 485.838 171.201 501.873 116.832ZM512.166 76.1466L520.341 100.084H519.918L512.16 84.4398L504.406 100.084H503.982L512.166 76.1466ZM522.444 116.832C536.779 165.434 560.458 203.18 581.764 229.716L573.292 232.454V235.106H578.394V236.114H564.03C558.458 229.478 552.978 222.104 547.843 213.936V213.328H547.466C546.176 211.271 544.917 209.161 543.683 207.002V197.975L538.495 188.895C538.495 188.895 538.475 188.706 538.429 188.356C537.827 183.683 533.059 149.803 519.028 130.502L520.592 119.583L522.444 116.832ZM604.147 250.495V253.927C603.406 253.173 602.666 252.426 601.915 251.646V250.495H604.147ZM607.732 250.495V257.515C606.991 256.788 606.253 256.063 605.496 255.306V250.495H607.732ZM609.084 260.405V259.764C609.302 259.979 609.524 260.193 609.745 260.405H609.084ZM600.556 251.166V260.405H598.324V250.495H599.918C600.129 250.72 600.344 250.945 600.556 251.166ZM604.147 260.405H601.915V252.581C602.662 253.355 603.406 254.112 604.147 254.863V260.405ZM605.496 260.405V256.229C606.247 256.979 606.991 257.717 607.732 258.441V260.405H605.496ZM594.733 260.405V250.495H596.965V260.405H594.733ZM562.373 260.405H564.605V262.931C563.858 262.783 563.114 262.644 562.373 262.515V260.405ZM558.785 260.405H561.014V262.277C560.26 262.151 559.516 262.039 558.785 261.929V260.405ZM555.194 260.405H557.426V261.734C556.662 261.629 555.915 261.533 555.194 261.443V260.405ZM551.609 260.405H553.841V261.288C553.058 261.199 552.314 261.123 551.609 261.056V260.405ZM548.025 260.405H550.257V260.931C549.43 260.858 548.68 260.799 548.025 260.752V260.405ZM545.145 260.405H546.666V260.666C545.704 260.607 545.145 260.587 545.145 260.587V260.405ZM543.683 213.328V208.5C544.626 210.124 545.594 211.731 546.583 213.328H543.683ZM545.145 221.009L547.843 216.466V215.328C552.449 222.544 557.575 229.471 563.143 236.114H560.111L545.145 241.259V221.009ZM407.984 295.621H411.479C410.312 296.868 409.145 298.148 407.984 299.47V295.621ZM419.21 274.316V278.962H412.263C414.521 277.511 416.84 275.966 419.21 274.316ZM411.063 278.962H410.061V264.763H419.21V273.526C416.423 275.477 413.698 277.286 411.063 278.962ZM480.64 213.328H477.733C478.725 211.731 479.691 210.117 480.64 208.493V213.328ZM479.182 221.009V238.69H459.017C465.442 231.276 471.275 223.479 476.477 215.328V216.466L479.182 221.009ZM611.316 250.495V260.405H610.691C610.155 259.893 609.623 259.38 609.084 258.851V250.495H611.316ZM612.675 250.495H614.907V260.405H612.675V250.495ZM616.263 250.495H618.495V260.405H616.263V250.495ZM619.847 250.495H622.08V260.405H619.847V250.495ZM636.762 169.501H640.882V176.729H636.762V169.501ZM644.88 169.501H649V176.729H644.88V169.501ZM653.001 169.501H657.118V176.729H653.001V169.501ZM659.039 225.738V236.114H656.774C656.979 232.791 657.227 229.286 657.531 225.738H659.039ZM658.732 214.445H659.039V224.822H657.614C657.921 221.343 658.292 217.841 658.732 214.445ZM659.039 212.124V213.513H658.854C658.91 213.053 658.973 212.594 659.039 212.124ZM656.218 247.41C656.334 244.354 656.493 240.82 656.718 237.047H659.039V247.41H656.218ZM659.039 248.339V258.702H655.927C655.927 258.702 655.964 254.595 656.189 248.339H659.039ZM659.872 248.339H662.987V258.702H659.872V248.339ZM659.872 237.047H662.987V247.41H659.872V237.047ZM659.872 225.738H662.987V236.114H659.872V225.738ZM659.872 214.445H662.987V224.822H659.872V214.445ZM659.872 206.728C660.084 205.504 660.309 204.301 660.544 203.143H662.987V213.513H659.872V206.728ZM660.626 154.796H664.747V156.945H660.626V154.796ZM662.987 193.947V202.217H660.735C661.39 199.119 662.137 196.312 662.987 193.947ZM665.236 176.729H661.116V169.501H665.236V176.729ZM663.821 202.217V191.851H666.926V202.217H663.821ZM663.821 213.513V203.143H666.926V213.513H663.821ZM663.821 224.822V214.445H666.926V224.822H663.821ZM663.821 236.114V225.738H666.926V236.114H663.821ZM666.926 248.339V258.702H663.821V248.339H666.926ZM663.821 247.41V237.047H666.926V247.41H663.821ZM667.769 248.339H670.874V258.702H667.769V248.339ZM667.769 237.047H670.874V247.41H667.769V237.047ZM667.769 225.738H670.874V236.114H667.769V225.738ZM667.769 214.445H670.874V224.822H667.769V214.445ZM667.769 203.143H670.874V213.513H667.769V203.143ZM667.769 191.851H670.874V202.217H667.769V191.851ZM669.237 169.501H673.354V176.729H669.237V169.501ZM669.237 154.796H673.354V156.945H669.237V154.796ZM671.711 213.513V203.143H674.822V213.513H671.711ZM671.711 224.822V214.445H674.822V224.822H671.711ZM671.711 236.114V225.738H674.822V236.114H671.711ZM674.822 248.339V258.702H671.711V248.339H674.822ZM671.711 247.41V237.047H674.822V247.41H671.711ZM674.822 191.851V202.217H671.711V191.851H674.822ZM675.655 248.339H678.767V258.702H675.655V248.339ZM675.655 237.047H678.767V247.41H675.655V237.047ZM675.655 225.738H678.767V236.114H675.655V225.738ZM675.655 214.445H678.767V224.822H675.655V214.445ZM675.655 203.143H678.767V213.513H675.655V203.143ZM675.655 191.851H678.767V202.217H675.655V191.851ZM681.856 202.217H679.604V193.974C680.454 196.318 681.198 199.126 681.856 202.217ZM677.355 169.501H681.475V176.729H677.355V169.501ZM677.845 154.796H681.965V156.945H677.845V154.796ZM683.552 237.047H685.867C686.092 240.82 686.25 244.354 686.369 247.41H683.552V237.047ZM683.552 225.738H685.057C685.364 229.286 685.612 232.791 685.81 236.114H683.552V225.738ZM683.552 214.445H683.859C684.299 217.841 684.663 221.343 684.974 224.822H683.552V214.445ZM683.552 212.124C683.615 212.594 683.681 213.053 683.737 213.513H683.552V212.124ZM328.073 219.458C327.885 219.458 327.703 219.432 327.531 219.386H328.622C328.447 219.432 328.262 219.458 328.073 219.458ZM325.17 214.657C324.661 214.657 324.38 215.282 324.231 215.887C324.214 215.851 324.194 215.821 324.174 215.791C323.923 215.047 323.325 213.781 322.266 213.781C321.198 213.781 320.6 215.067 320.339 215.808L320.306 215.864C320.15 215.266 319.872 214.657 319.366 214.657V206.096H325.17V214.657ZM321.721 219.386H322.812C322.64 219.432 322.455 219.458 322.266 219.458C322.075 219.458 321.893 219.432 321.721 219.386ZM325.17 243.72H319.366V233.204H325.17V243.72ZM316.463 219.458C316.278 219.458 316.093 219.432 315.918 219.386H317.009C316.833 219.432 316.652 219.458 316.463 219.458ZM310.66 219.458C310.468 219.458 310.289 219.432 310.114 219.386H311.205C311.03 219.432 310.848 219.458 310.66 219.458ZM304.853 219.458C304.658 219.458 304.479 219.432 304.304 219.386H305.399C305.224 219.432 305.038 219.458 304.853 219.458ZM299.05 219.458C298.865 219.458 298.676 219.432 298.501 219.386H299.595C299.42 219.432 299.235 219.458 299.05 219.458ZM296.738 243.72H287.443V233.204H296.738V243.72ZM286.891 219.386H287.985C287.81 219.432 287.632 219.458 287.436 219.458C287.245 219.458 287.066 219.432 286.891 219.386ZM293.792 219.386C293.62 219.432 293.432 219.458 293.246 219.458C293.055 219.458 292.873 219.432 292.701 219.386H293.792ZM282.989 316.258H269.692V295.621H282.989V316.258ZM271.766 264.763H280.912V278.962H271.766V264.763ZM276.379 219.386C276.203 219.432 276.018 219.458 275.833 219.458C275.638 219.458 275.459 219.432 275.284 219.386H276.379ZM282.182 219.386C282.007 219.432 281.818 219.458 281.633 219.458C281.448 219.458 281.263 219.432 281.088 219.386H282.182ZM240.001 316.258H226.708V295.621H240.001V316.258ZM197.017 316.258H183.72V295.621H197.017V316.258ZM185.797 264.763H194.947V278.962H185.797V264.763ZM228.781 264.763H237.928V278.962H228.781V264.763ZM1248.46 327.289C1248.46 327.289 1249.12 323.619 1246.86 322.763V314.873L1246.32 314.073V307.833L1245.96 307.284V299.636L1244.41 295.539H1239.59L1238.16 292.969H1233.9V290.579H1231.34V288.194H1228.78V285.807H1226.22V283.423H1223.76V279.69C1223.76 279.69 1230.09 271.876 1228.78 262.578C1228.41 259.929 1227.08 258.196 1225.24 257.082C1227.57 256.285 1228.28 253.501 1228.28 253.501C1222.99 253.197 1220.57 247.403 1220.57 247.403L1213.74 225.787H1214.22C1214.22 225.787 1214.94 225.599 1214.22 224.528L1212.24 221.776C1212.24 221.776 1212.96 220.523 1212.96 218.962C1212.96 218.962 1213.13 218.238 1212.39 218.238H1211.12C1211.12 218.238 1210.54 217.345 1211.26 216.734C1211.97 216.119 1213.25 214.862 1212.9 213.672C1212.54 212.478 1212.05 214.068 1210.88 214.343C1210.88 214.343 1212.04 211.721 1209.72 211.602V211.595C1209.68 211.529 1209.63 211.417 1209.63 211.284C1209.63 211.069 1209.63 210.825 1209.84 210.805C1210.06 210.785 1210.33 210.692 1210.21 210.246C1210.09 209.796 1209.88 209.459 1209.54 209.419C1209.19 209.459 1208.98 209.796 1208.87 210.246C1208.75 210.692 1209.02 210.785 1209.23 210.805C1209.44 210.825 1209.44 211.069 1209.44 211.284C1209.44 211.417 1209.41 211.529 1209.37 211.595C1207.03 211.711 1208.18 214.343 1208.18 214.343C1207.02 214.068 1206.54 212.478 1206.17 213.672C1205.82 214.862 1207.1 216.119 1207.81 216.734C1208.53 217.345 1207.96 218.238 1207.96 218.238H1206.68C1205.94 218.238 1206.11 218.962 1206.11 218.962C1206.11 220.523 1206.82 221.776 1206.82 221.776L1204.86 224.528C1204.13 225.599 1204.86 225.787 1204.86 225.787H1205.33L1198.5 247.403C1198.5 247.403 1196.09 253.197 1190.79 253.501C1190.79 253.501 1191.51 256.285 1193.83 257.082C1192 258.196 1190.67 259.929 1190.29 262.578C1188.98 271.876 1195.31 279.69 1195.31 279.69V283.423H1192.85V285.807H1190.29V288.194H1187.73V290.579H1185.17V292.969H1180.91L1180.53 293.654H1179.44V136.606L1180.49 135.885V134.526L1176.49 136.606H1154.74L1150.74 134.526V135.885L1151.8 136.606V140.68H1122.21V135.396H1126.48V130.261H1117.92V125.525C1117.92 125.525 1113.69 122.202 1100.2 122.202H1084.7C1071.21 122.202 1066.98 125.525 1066.98 125.525V130.261H1058.42V135.396H1062.7V140.68H1033.11V136.606L1034.16 135.885V134.526L1030.16 136.606H1008.41L1004.41 134.526V135.885L1005.47 136.606V265.196C1003 263.113 1000.05 261.222 996.466 259.625C996.466 259.625 993.434 243.66 985.25 239.183C977.079 234.709 965.998 231.868 956.508 232.768C947.011 233.661 953.34 227.993 953.075 219.187C952.811 210.385 951.981 157.369 932.636 149.41C913.285 141.454 904.41 147.72 904.942 138.468C905.468 129.222 913.245 119.223 907.442 113.403C907.442 113.403 908.626 96.6944 899.135 89.8297C889.639 82.9617 896.235 80.4321 884.361 78.1902C884.361 78.1902 884.688 76.55 882.784 75.9515C880.876 76.55 881.203 78.1902 881.203 78.1902C869.332 80.4321 875.919 82.9617 866.428 89.8297C856.931 96.6944 858.115 113.403 858.115 113.403C852.322 119.223 860.099 129.222 860.625 138.468C861.154 147.72 852.279 141.454 832.931 149.41C813.587 157.369 812.747 210.385 812.489 219.187C812.224 227.993 818.557 233.661 809.06 232.768C806.801 232.553 804.457 232.559 802.082 232.738V196.077H800.28V185.125H798.759V160.735H797.565V95.5271C797.565 95.5271 797.727 94.4359 796.904 94.4359H794.414C794.146 92.7958 793.115 86.9363 791.438 83.428C791.941 83.3254 792.261 83.1799 792.261 83.008C792.261 82.803 791.798 82.631 791.091 82.5351L790.158 79.8997C790.158 79.8964 790.158 79.8964 790.152 79.8898C790.145 79.8667 790.132 79.8501 790.122 79.8303C790.109 79.8137 790.102 79.7972 790.079 79.7807C790.066 79.7675 790.056 79.7608 790.036 79.7476C790.019 79.7344 790.003 79.7245 789.98 79.7179C789.97 79.7112 789.97 79.7112 789.966 79.7112C789.953 79.7046 789.94 79.7046 789.93 79.7046C789.9 79.6947 789.884 79.6914 789.861 79.6914C789.841 79.6914 789.811 79.6947 789.791 79.7046C789.781 79.7046 789.768 79.7046 789.758 79.7112C789.748 79.7112 789.745 79.7112 789.745 79.7179C789.722 79.7245 789.699 79.7344 789.679 79.7575C789.669 79.7608 789.649 79.7675 789.639 79.7807C789.619 79.7972 789.616 79.8137 789.599 79.8303C789.59 79.8501 789.576 79.8667 789.573 79.8898C789.566 79.8964 789.566 79.8964 789.56 79.8997L788.627 82.5351C787.926 82.631 787.453 82.803 787.453 83.008C787.453 83.1799 787.771 83.3254 788.283 83.428C786.6 86.9661 785.572 92.7958 785.304 94.4359H782.817C781.994 94.4359 782.156 95.5271 782.156 95.5271V160.735H780.956V185.125H779.441V196.077H777.639V236.114H764.19V235.106H769.293V232.454L738.041 222.352H706.471V190.895H709.5V179.943H712.959V176.653L724.232 168.572H729.433C729.433 168.572 731.907 168.545 730.948 165.913C730.948 165.913 730.984 167.11 727.697 166.313L693.8 158.023V153.718H698.743C698.743 153.718 700.476 153.503 699.1 151.747C699.1 151.747 698.938 152.64 697.569 152.124L674.323 145.134C674.323 145.134 674.511 144.311 673.516 143.874C673.516 143.874 673.037 143.573 673.215 142.856C673.394 142.138 674.568 138.673 673.291 136.92C672.018 135.168 673.787 134.82 672.673 133.528C671.558 132.235 672.914 132.334 672.352 131.18C671.797 130.022 672.96 130.125 671.294 128.809C669.624 130.125 670.791 130.022 670.229 131.18C669.67 132.334 671.026 132.235 669.908 133.528C668.797 134.82 670.566 135.168 669.293 136.92C668.017 138.673 669.197 142.138 669.373 142.856C669.555 143.573 669.075 143.874 669.075 143.874C668.073 144.311 668.268 145.134 668.268 145.134L645.018 152.124C643.643 152.64 643.484 151.747 643.484 151.747C642.112 153.503 643.841 153.718 643.841 153.718H648.791V158.023L614.887 166.313C611.6 167.11 611.634 165.913 611.634 165.913C610.678 168.545 613.151 168.572 613.151 168.572H618.363L629.626 176.653V179.943H633.081V190.895H636.11V222.352H604.544L582.422 229.501C561.05 202.918 537.242 165.01 522.917 116.131L524.544 113.711V105.361H523.571V100.084H521.71L512.795 73.994L512.775 73.9278C512.768 73.8981 512.755 73.8749 512.745 73.8485C512.725 73.8154 512.712 73.789 512.689 73.7658C512.646 73.6997 512.593 73.6468 512.537 73.6071C512.507 73.5906 512.477 73.5773 512.451 73.5575C512.424 73.5443 512.398 73.531 512.375 73.5244C512.365 73.5244 512.365 73.5244 512.358 73.5244C512.233 73.4814 512.094 73.4814 511.965 73.5244C511.958 73.5244 511.958 73.5244 511.952 73.5244C511.925 73.531 511.899 73.5443 511.875 73.5575C511.842 73.5773 511.813 73.5906 511.79 73.6071C511.727 73.6468 511.67 73.7063 511.634 73.7658C511.614 73.789 511.601 73.8154 511.585 73.8485C511.561 73.8948 511.542 73.9411 511.528 73.994L502.617 100.084H500.752V105.361H499.779V113.711L501.406 116.131C485.342 170.946 457.347 211.972 434.236 238.69H422.256V225.152L425.675 221.198V219.386H421.462V217.57L420.87 216.968V213.007L421.462 212.478V211.608H420.629V210.729H419.988V210.054H419.091V209.115C419.091 209.115 419.28 207.938 418.255 207.938C417.226 207.938 417.415 209.115 417.415 209.115V210.054H416.519V210.729H415.874V211.608H415.047V212.478L415.636 213.007V213.877C415.484 213.814 415.322 213.781 415.143 213.781C414.085 213.781 413.486 215.047 413.238 215.791C413.219 215.821 413.195 215.851 413.186 215.881C413.033 215.275 412.756 214.657 412.243 214.657C411.741 214.657 411.459 215.272 411.304 215.874C411.297 215.851 411.281 215.834 411.268 215.808C411.006 215.067 410.408 213.781 409.34 213.781C408.282 213.781 407.683 215.047 407.435 215.791C407.412 215.821 407.392 215.851 407.376 215.887C407.227 215.282 406.946 214.657 406.436 214.657C405.931 214.657 405.653 215.272 405.501 215.874C405.494 215.851 405.478 215.834 405.464 215.808C405.203 215.067 404.605 213.781 403.536 213.781C402.482 213.781 401.88 215.047 401.632 215.791C401.609 215.821 401.589 215.851 401.572 215.887C401.423 215.282 401.146 214.657 400.633 214.657C400.127 214.657 399.849 215.272 399.691 215.874C399.687 215.851 399.671 215.834 399.654 215.808C399.393 215.067 398.798 213.781 397.73 213.781C396.672 213.781 396.073 215.047 395.825 215.791C395.805 215.821 395.782 215.851 395.769 215.881C395.62 215.275 395.342 214.657 394.83 214.657C394.324 214.657 394.046 215.272 393.891 215.874C393.884 215.851 393.864 215.834 393.851 215.808C393.59 215.067 392.995 213.781 391.926 213.781C390.868 213.781 390.27 215.047 390.022 215.791C389.999 215.821 389.979 215.851 389.962 215.887C389.81 215.282 389.532 214.657 389.026 214.657C388.521 214.657 388.243 215.272 388.087 215.874C388.081 215.851 388.061 215.834 388.051 215.808C387.79 215.067 387.191 213.781 386.123 213.781V201.596L388.468 198.775V197.638H385.181V192.433H380.727V188.276H375.426V184.801H369.765V181.256H364.695V165.655L365.677 162.732H364.246V158.982H363.399C363.399 158.982 364.461 157.501 363.108 157.597C361.752 157.699 360.688 158.202 357.589 156.492C354.494 154.783 353.234 153.973 350.956 154.125C348.684 154.274 348.443 153.219 348.539 152.518C348.631 151.81 351.009 151.81 351.009 148.487C351.009 145.167 348.053 148.993 348.053 146.324C348.053 143.656 350.083 144.714 348.297 142.251C348.297 142.251 349.312 141.239 348.053 139.982C348.053 139.982 349.213 138.775 348.053 136.811C346.889 134.85 346.118 135.049 346.118 132.585C346.118 132.585 346.164 131.345 345.49 131.345C344.812 131.345 344.858 132.585 344.858 132.585C344.858 135.049 344.084 134.85 342.924 136.811C341.76 138.775 342.924 139.982 342.924 139.982C341.661 141.239 342.679 142.251 342.679 142.251C340.887 144.714 342.924 143.656 342.924 146.324C342.924 148.993 339.971 145.167 339.971 148.487C339.971 151.81 342.342 151.81 342.441 152.518C342.534 153.219 342.295 154.274 340.02 154.125C337.742 153.973 336.486 154.783 333.384 156.492C330.289 158.202 329.227 157.699 327.868 157.597C326.512 157.501 327.577 158.982 327.577 158.982H326.734V162.732H325.305L326.287 165.655V181.256H321.215V184.801H315.547V188.276H310.25V192.433H305.792V197.638H302.512V198.775L304.853 201.596V213.781C303.782 213.781 303.183 215.067 302.922 215.808L302.889 215.864C302.74 215.266 302.459 214.657 301.953 214.657C301.444 214.657 301.163 215.282 301.011 215.887C300.997 215.851 300.978 215.821 300.954 215.791C300.703 215.047 300.105 213.781 299.05 213.781C297.982 213.781 297.38 215.067 297.119 215.808C297.109 215.834 297.092 215.851 297.086 215.874C296.93 215.272 296.649 214.657 296.146 214.657C295.637 214.657 295.359 215.282 295.211 215.887C295.194 215.851 295.174 215.821 295.151 215.791C294.9 215.047 294.301 213.781 293.246 213.781C292.178 213.781 291.577 215.067 291.319 215.808C291.305 215.834 291.289 215.851 291.282 215.874C291.127 215.272 290.846 214.657 290.343 214.657C289.831 214.657 289.553 215.282 289.401 215.887C289.391 215.851 289.368 215.821 289.348 215.791C289.093 215.047 288.498 213.781 287.436 213.781C286.375 213.781 285.77 215.067 285.515 215.808C285.502 215.824 285.486 215.851 285.479 215.874C285.323 215.272 285.042 214.657 284.54 214.657C284.027 214.657 283.749 215.282 283.597 215.887C283.581 215.851 283.564 215.821 283.541 215.791C283.29 215.047 282.691 213.781 281.633 213.781C280.565 213.781 279.967 215.067 279.705 215.808C279.695 215.834 279.676 215.851 279.672 215.874C279.52 215.272 279.242 214.657 278.736 214.657C278.224 214.657 277.946 215.282 277.794 215.887C277.777 215.851 277.761 215.821 277.738 215.791C277.486 215.047 276.888 213.781 275.833 213.781C275.651 213.781 275.489 213.814 275.337 213.877V213.007L275.929 212.478V211.608H275.102V210.729H274.454V210.054H273.561V209.115C273.561 209.115 273.747 207.938 272.725 207.938C271.696 207.938 271.882 209.115 271.882 209.115V210.054H270.989V210.729H270.341V211.608H269.517V212.478L270.106 213.007V216.968L269.517 217.57V219.386H265.301V221.198L268.714 225.152V238.69H170.897V237.063L170.305 236.461V232.5L170.897 231.971V231.101H170.067V230.218H169.422V229.544H168.532V228.608C168.532 228.608 168.714 227.431 167.689 227.431C166.661 227.431 166.849 228.608 166.849 228.608V229.544H165.953V230.218H165.308V231.101H164.485V231.971L165.07 232.5V236.461L164.485 237.063V238.69H163.096V239.596H162.015V240.869L163.109 241.964V247.774L162.484 248.683V250.118H156.387V252.003L158.278 253.514H159.512V255.779H161.4V257.217L162.56 258.424V322.601L161.836 324.31V335.893H353.032V337.143H877.073V327.065H995.802V337.143H1250.01V327.289H1248.46Z" fill="#7E7E7E"/>
<mask id="mask0_1285_2001" style="mask-type:luminance" maskUnits="userSpaceOnUse" x="110" y="36" width="1219" height="328">
<path d="M110.941 36.3984H1328.06V363.992H110.941V36.3984Z" fill="white"/>
</mask>
<g mask="url(#mask0_1285_2001)">
<path d="M317.891 307.692L319.204 306.684V301.036L328.482 285.101H335.744C335.744 285.101 339.342 284.76 337.93 280.763C336.518 276.761 337.659 282.882 334.603 280.763L318.771 272.244H332.216V273.306C332.216 274.959 333.75 276.5 337.298 276.619C340.846 276.735 341.713 278.173 341.713 278.173V279.675H340.529V284.241C340.529 286.533 345.694 288.107 345.694 288.107V313.175H344.312V322.318H330.758V335.353H317.891V307.692ZM222.885 320.251C222.885 320.251 223.407 320.248 223.407 319.831C223.407 319.414 223.368 318.76 224.277 318.76C224.277 318.76 224.614 318.746 224.614 318.442C224.614 318.442 224.465 316.514 226.585 316.514C228.701 316.514 228.549 318.442 228.549 318.442C228.549 318.746 228.887 318.76 228.887 318.76C229.793 318.76 229.76 319.414 229.76 319.831C229.76 320.248 230.279 320.251 230.279 320.251V327.661H222.885V320.251ZM236.267 320.251C236.267 320.251 236.79 320.248 236.79 319.831C236.79 319.414 236.747 318.76 237.656 318.76C237.656 318.76 237.997 318.746 237.997 318.442C237.997 318.442 237.845 316.514 239.961 316.514C242.08 316.514 241.932 318.442 241.932 318.442C241.932 318.746 242.269 318.76 242.269 318.76C243.175 318.76 243.142 319.414 243.142 319.831C243.142 320.248 243.661 320.251 243.661 320.251V327.661H236.267V320.251ZM249.643 320.251C249.643 320.251 250.162 320.248 250.162 319.831C250.162 319.414 250.129 318.76 251.038 318.76C251.038 318.76 251.376 318.746 251.376 318.442C251.376 318.442 251.227 316.514 253.343 316.514C255.463 316.514 255.311 318.442 255.311 318.442C255.311 318.746 255.651 318.76 255.651 318.76C256.557 318.76 256.521 319.414 256.521 319.831C256.521 320.248 257.044 320.251 257.044 320.251V327.661H249.643V320.251ZM260.605 314.55H270.69V332.836H260.605V314.55ZM274.255 320.251C274.255 320.251 274.774 320.248 274.774 319.831C274.774 319.414 274.738 318.76 275.647 318.76C275.647 318.76 275.985 318.746 275.985 318.442C275.985 318.442 275.836 316.514 277.952 316.514C280.072 316.514 279.923 318.442 279.923 318.442C279.923 318.746 280.26 318.76 280.26 318.76C281.166 318.76 281.133 319.414 281.133 319.831C281.133 320.248 281.652 320.251 281.652 320.251V327.661H274.255V320.251ZM287.634 320.251C287.634 320.251 288.157 320.248 288.157 319.831C288.157 319.414 288.12 318.76 289.026 318.76C289.026 318.76 289.367 318.746 289.367 318.442C289.367 318.442 289.215 316.514 291.331 316.514C293.451 316.514 293.299 318.442 293.299 318.442C293.299 318.746 293.643 318.76 293.643 318.76C294.549 318.76 294.509 319.414 294.509 319.831C294.509 320.248 295.028 320.251 295.028 320.251V327.661H287.634V320.251ZM304.714 316.514C306.83 316.514 306.678 318.442 306.678 318.442C306.678 318.746 307.018 318.76 307.018 318.76C307.928 318.76 307.891 319.414 307.891 319.831C307.891 320.248 308.411 320.251 308.411 320.251V327.661H301.017V320.251C301.017 320.251 301.536 320.248 301.536 319.831C301.536 319.414 301.499 318.76 302.409 318.76C302.409 318.76 302.749 318.746 302.749 318.442C302.749 318.442 302.594 316.514 304.714 316.514ZM350.935 290.038C350.935 290.038 353.498 285.544 363.038 285.544C372.575 285.544 375.141 290.038 375.141 290.038V313.687H350.935V290.038ZM380.461 290.038C380.461 290.038 383.024 285.544 392.561 285.544C402.101 285.544 404.667 290.038 404.667 290.038V313.687H380.461V290.038ZM385.464 205.962H399.654V215.422H385.464V205.962ZM389.485 156.696H395.636V166.153H389.485V156.696ZM409.987 290.038C409.987 290.038 412.547 285.544 422.087 285.544C431.627 285.544 434.186 290.038 434.186 290.038V313.687H409.987V290.038ZM443.409 279.675V278.173C443.409 278.173 444.278 276.735 447.826 276.619C451.375 276.5 452.912 274.959 452.912 273.306V272.244H455.319C452.403 276.011 452.128 281.077 452.128 281.077C449.238 283.008 451.272 284.049 451.272 284.049V289.74H447.826V304.108H439.431V288.107C439.431 288.107 444.589 286.533 444.589 284.241V279.675H443.409ZM546.642 222.519C587.398 199.878 646.889 160.019 704.533 96.5933C652.785 166.507 593.178 206.121 551.182 227.333C512.239 247.011 481.274 254.686 470.517 256.978L470.428 256.935C480.424 253.644 509.041 243.4 546.642 222.519ZM710.045 90.4198C710.045 90.4198 710.058 90.4198 710.058 90.4032C711.067 89.269 712.075 88.1348 713.084 86.9808L713.388 87.6488C675.155 161.732 630.571 210.155 599.781 237.819C589.362 247.167 579.786 254.845 571.515 260.979H564.961V265.74C556.896 271.408 550.508 275.369 546.358 277.803H504.345V304.108H485.1V289.74H481.654V284.049C481.654 284.049 483.691 283.008 480.801 281.077C480.801 281.077 480.517 276.011 477.604 272.244H489.525C489.525 272.244 495.126 271.315 494.657 265.717C494.18 260.119 494.256 269.106 486.532 264.775L471.837 257.619C483.605 255.043 513.822 247.21 551.467 228.186C594.874 206.273 657.091 164.704 710.045 90.4198ZM711.017 64.8227C716.662 53.6494 717.856 45.8423 718.113 43.0548H718.299L717.27 55.7492H716.801L714.092 64.8227H711.017ZM718.917 240.494H720.094V242.633H718.917V240.494ZM720.881 43.0548C721.136 45.8423 722.33 53.6494 727.994 64.8227H724.915L722.211 55.7492H721.721L720.713 43.0548H720.881ZM728.946 90.4198C781.904 164.704 844.117 206.273 887.531 228.186C930.102 249.696 963.187 256.908 970.818 258.376V259.977L966.444 263.062V269.308H964.923C958.663 272.397 958.213 281.077 958.213 281.077C955.326 283.008 957.344 284.049 957.344 284.049V289.74H953.908V304.108H934.649V277.803H892.67C888.504 275.386 882.098 271.428 874.056 265.74V260.979H867.492C859.226 254.845 849.649 247.186 839.226 237.819C808.444 210.175 763.872 161.748 725.607 87.6488L725.921 86.9643C726.933 88.1348 727.941 89.2856 728.946 90.4198ZM892.369 222.519C930.661 243.787 959.655 254.028 969.139 257.113C958.984 254.997 927.556 247.408 887.832 227.333C845.813 206.121 786.206 166.49 734.462 96.5735C792.105 160.019 851.594 199.878 892.369 222.519ZM874.056 270.069V266.428C881.424 271.633 887.389 275.369 891.513 277.803H889.631C885.898 276.206 880.567 273.713 874.056 270.069ZM888.153 277.803H874.056V270.74C879.78 273.918 884.555 276.222 888.153 277.803ZM728.02 240.494V242.633H726.847V240.494H728.02ZM735.977 240.494V242.633H734.783V240.494H735.977ZM743.906 240.494V242.633H742.712V240.494H743.906ZM751.839 240.494V242.633H750.665V240.494H751.839ZM759.788 240.494V242.633H758.595V240.494H759.788ZM767.721 240.494V242.633H766.531V240.494H767.721ZM775.651 240.494V242.633H774.477V240.494H775.651ZM783.587 240.494V242.633H782.41V240.494H783.587ZM791.517 240.494V242.633H790.339V240.494H791.517ZM799.466 240.494V242.633H798.276V240.494H799.466ZM726.764 91.0513C764.699 163.474 808.507 211.011 838.912 238.321C849.061 247.408 858.406 254.921 866.52 260.979H859.196C852.305 256.389 844.673 250.83 836.591 244.118C806.185 218.894 762.728 171.992 726.764 91.0513ZM780.647 185.375C797.786 208.277 816.509 228.206 836.287 244.624C844.084 251.088 851.428 256.501 858.134 260.979H818.675V245.996H807.786V236.198H804.509C804.509 236.198 791.199 180.415 742.395 173.834V157.473C742.395 157.473 744.346 155.578 744.346 149.014H741.148L725.015 88.9351L725.134 88.6904C740.999 124.869 759.656 157.397 780.647 185.375ZM602.437 244.101C594.339 250.811 586.723 256.389 579.815 260.979H572.474C580.589 254.921 589.954 247.408 600.086 238.321C630.485 211.011 674.316 163.474 712.247 91.0513C676.28 171.973 632.839 218.875 602.437 244.101ZM640.722 240.494V242.633H639.545V240.494H640.722ZM648.655 240.494V242.633H647.478V240.494H648.655ZM656.585 240.494V242.633H655.424V240.494H656.585ZM664.534 240.494V242.633H663.357V240.494H664.534ZM672.467 240.494V242.633H671.29V240.494H672.467ZM680.417 240.494V242.633H679.223V240.494H680.417ZM688.349 240.494V242.633H687.172V240.494H688.349ZM696.279 240.494V242.633H695.102V240.494H696.279ZM704.228 240.494V242.633H703.035V240.494H704.228ZM712.158 240.494V242.633H710.984V240.494H712.158ZM697.86 149.014H694.665C694.665 155.578 696.616 157.473 696.616 157.473V173.834C647.812 180.415 634.486 236.198 634.486 236.198H631.209V245.996H620.32V260.979H580.857C587.566 256.501 594.927 251.088 602.724 244.624C622.486 228.206 641.225 208.277 658.367 185.375C679.342 157.397 698.012 124.869 713.878 88.6904L713.99 88.9351L697.86 149.014ZM564.961 270.74V277.803H550.861C554.459 276.222 559.231 273.918 564.961 270.74ZM549.383 277.803H547.502C551.619 275.369 557.584 271.633 564.961 266.428V270.052C558.424 273.713 553.113 276.206 549.383 277.803ZM1045.55 98.5509C1047.69 98.5509 1047.48 100.968 1047.48 100.968V106.943H1043.62V100.968C1043.62 100.968 1043.41 98.5509 1045.55 98.5509ZM1045.55 291.294C1046.33 291.294 1046.97 291.929 1046.97 292.713C1046.97 293.493 1046.33 294.128 1045.55 294.128C1044.77 294.128 1044.13 293.493 1044.13 292.713C1044.13 291.929 1044.77 291.294 1045.55 291.294ZM1045.55 263.356C1046.33 263.356 1046.97 263.994 1046.97 264.778C1046.97 265.565 1046.33 266.193 1045.55 266.193C1044.77 266.193 1044.13 265.565 1044.13 264.778C1044.13 263.994 1044.77 263.356 1045.55 263.356ZM1045.55 234.852C1046.33 234.852 1046.97 235.487 1046.97 236.271C1046.97 237.058 1046.33 237.69 1045.55 237.69C1044.77 237.69 1044.13 237.058 1044.13 236.271C1044.13 235.487 1044.77 234.852 1045.55 234.852ZM1045.55 210.211C1046.33 210.211 1046.97 210.849 1046.97 211.63C1046.97 212.417 1046.33 213.048 1045.55 213.048C1044.77 213.048 1044.13 212.417 1044.13 211.63C1044.13 210.849 1044.77 210.211 1045.55 210.211ZM1045.55 185.176C1046.33 185.176 1046.97 185.814 1046.97 186.598C1046.97 187.382 1046.33 188.013 1045.55 188.013C1044.77 188.013 1044.13 187.382 1044.13 186.598C1044.13 185.814 1044.77 185.176 1045.55 185.176ZM1045.55 163.24C1046.33 163.24 1046.97 163.871 1046.97 164.655C1046.97 165.435 1046.33 166.073 1045.55 166.073C1044.77 166.073 1044.13 165.435 1044.13 164.655C1044.13 163.871 1044.77 163.24 1045.55 163.24ZM1044.13 123.602C1044.13 122.822 1044.77 122.184 1045.55 122.184C1046.33 122.184 1046.97 122.822 1046.97 123.602C1046.97 124.389 1046.33 125.021 1045.55 125.021C1044.77 125.021 1044.13 124.389 1044.13 123.602ZM1045.55 142.715C1046.33 142.715 1046.97 143.347 1046.97 144.134C1046.97 144.914 1046.33 145.549 1045.55 145.549C1044.77 145.549 1044.13 144.914 1044.13 144.134C1044.13 143.347 1044.77 142.715 1045.55 142.715ZM357.403 214.556L346.759 206.594H357.403V214.556ZM375.614 161.424L368.597 155.274H375.614V161.424ZM409.514 155.274H416.528L409.514 161.424V155.274ZM427.725 206.594H438.366L427.725 214.556V206.594ZM1135.03 313.571H1142.7V327.139H1135.03V313.571ZM1140.42 241.601H1146.11V249.081H1140.42V241.601ZM1156.48 286.695V296.611H1146.03V286.695H1156.48ZM1162.9 174.535C1163.02 174.985 1163.22 175.124 1163.22 175.124V176.066H1162.64C1162.64 176.066 1162.71 175.458 1162.9 174.535ZM1164.2 170.458L1164.11 171.152C1164.11 172.082 1163.67 172.521 1163.31 172.928C1163.53 172.151 1163.82 171.298 1164.2 170.458ZM1164.6 169.635C1165.6 167.766 1167.06 166.097 1169.19 165.627C1171.33 166.097 1172.78 167.766 1173.79 169.635V169.641L1173.59 171.152C1173.59 172.736 1172.31 172.902 1172.31 173.877C1172.31 174.853 1172.7 175.124 1172.7 175.124V176.066H1170.53V175.035C1170.53 175.035 1170.96 174.744 1170.96 173.675C1170.96 172.604 1169.56 172.426 1169.56 170.699L1169.19 167.747L1168.82 170.699C1168.82 172.426 1167.42 172.604 1167.42 173.675C1167.42 174.744 1167.86 175.035 1167.86 175.035V176.066H1165.68V175.124C1165.68 175.124 1166.07 174.853 1166.07 173.877C1166.07 172.902 1164.8 172.736 1164.8 171.152L1164.6 169.641V169.635ZM1175.08 172.938C1174.72 172.531 1174.26 172.092 1174.26 171.152L1174.18 170.455C1174.56 171.298 1174.86 172.154 1175.08 172.938ZM1175.16 175.124C1175.16 175.124 1175.36 174.985 1175.48 174.535C1175.67 175.458 1175.74 176.066 1175.74 176.066H1175.16V175.124ZM1181.91 286.695H1192.35V296.611H1181.91V286.695ZM1192.27 241.601H1197.96V249.081H1192.27V241.601ZM1203.35 327.139H1195.69V313.571H1203.35V327.139ZM1173.02 313.571V327.139H1165.36V313.571H1173.02ZM1174.41 286.695V296.611H1163.97V286.695H1174.41ZM1167.19 205.096V197.92H1171.19V205.096H1167.19ZM1171.62 240.99V249.69H1166.77V240.99H1171.62ZM1299.41 335.353H1229.84V328.442H1219.06V300.09L1240.49 284.737H1253.38V282.389L1206.42 262.169V253.426L1222.18 235.031H1230.01L1231.4 233.206L1192.23 216.636V211.028L1206.42 193.545H1212.95C1212.95 193.545 1216.02 193.334 1215.02 188.936C1215.02 188.936 1213.67 190.807 1209.04 188.936L1181.91 179.194V176.066H1179.59V175.183C1179.59 175.183 1179.95 174.935 1179.95 174.023C1179.95 173.11 1178.75 172.951 1178.75 171.477L1178.43 168.954L1178.12 171.477C1178.12 172.951 1176.91 173.11 1176.91 174.023C1176.91 174.935 1177.29 175.183 1177.29 175.183V176.066H1176.32C1176.32 176.066 1176.85 170.022 1174.33 167.108C1171.8 164.192 1171.93 163.798 1171.21 161.629C1170.5 159.453 1169.42 155.221 1169.42 155.221C1169.42 155.221 1169.35 154.897 1169.19 154.831C1169.03 154.897 1168.96 155.221 1168.96 155.221C1168.96 155.221 1167.88 159.453 1167.17 161.629C1166.46 163.798 1166.58 164.192 1164.06 167.108C1161.53 170.022 1162.07 176.066 1162.07 176.066H1161.09V175.183C1161.09 175.183 1161.47 174.935 1161.47 174.023C1161.47 173.11 1160.26 172.951 1160.26 171.477L1159.95 168.954L1159.63 171.477C1159.63 172.951 1158.43 173.11 1158.43 174.023C1158.43 174.935 1158.8 175.183 1158.8 175.183V176.066H1156.48V179.194L1129.35 188.936C1124.71 190.807 1123.37 188.936 1123.37 188.936C1122.36 193.334 1125.44 193.545 1125.44 193.545H1131.96L1146.15 211.028V216.636L1106.98 233.206L1108.37 235.031H1116.21L1131.96 253.426V262.169L1085 282.389V284.737H1097.88L1119.32 300.09V328.442H1108.54V335.353H1094.52V332.79H1091.31V328.442H1088.1V324.09H1084.73V319.742H1081.26V315.39H1077.87V311.042H1073.95V306.69H1062.57V278.732H1063.38V276.705H1061.8V250.014H1062.57V248.083H1059.93V224.463H1060.62V222.753H1059.09V200.513H1059.74V198.899H1058.47V177.667H1059.09V176.129H1058.08V155.555H1058.67V154.064H1057.64V134.194H1058.23V132.759H1057.1V113.788H1057.64V112.416H1056.14V95.0227H1056.65V93.7595H1055.68C1055.68 93.7595 1058.17 88.3035 1054.06 84.352C1049.96 80.4038 1048.19 81.3131 1047.54 78.5785C1047.54 78.5785 1047.47 78.1387 1046.9 77.8411C1046.91 77.7519 1046.92 77.656 1046.92 77.5634C1046.92 76.8557 1046.59 76.244 1046.12 75.9729C1046.56 75.7612 1046.87 75.3082 1046.87 74.7758C1046.87 74.2335 1046.53 73.7706 1046.07 73.5656C1046.44 73.3804 1046.7 72.9902 1046.7 72.5438C1046.7 72.0147 1046.35 71.5683 1045.85 71.4361C1046.21 71.3104 1046.48 70.9632 1046.48 70.5532C1046.48 70.1564 1046.23 69.8125 1045.88 69.6835C1046.14 69.5645 1046.31 69.2967 1046.31 68.9924C1046.31 68.675 1046.13 68.4072 1045.85 68.2881C1046.06 68.1823 1046.21 67.9674 1046.21 67.7161C1046.21 67.4581 1046.05 67.2366 1045.84 67.1341C1046.01 67.0382 1046.13 66.8497 1046.13 66.6414C1046.13 66.4165 1046 66.2281 1045.82 66.1288C1045.95 66.0429 1046.03 65.8941 1046.03 65.7254C1046.03 65.5303 1045.92 65.3617 1045.75 65.2823C1045.9 65.2129 1046 65.0641 1046 64.8955C1046 64.7698 1045.93 64.6541 1045.86 64.5747C1046 64.5218 1046.09 64.4325 1046.09 64.3267C1046.09 64.211 1045.97 64.1085 1045.81 64.0622C1045.92 63.9795 1046 63.8472 1046 63.6984C1046 63.4537 1045.79 63.252 1045.55 63.252C1045.31 63.252 1045.11 63.4537 1045.11 63.6984C1045.11 63.8472 1045.18 63.9795 1045.3 64.0622C1045.13 64.1085 1045.02 64.211 1045.02 64.3267C1045.02 64.4325 1045.11 64.5218 1045.25 64.5747C1045.16 64.6541 1045.11 64.7698 1045.11 64.8955C1045.11 65.0641 1045.2 65.2129 1045.35 65.2823C1045.18 65.3617 1045.07 65.5303 1045.07 65.7254C1045.07 65.8941 1045.15 66.0429 1045.29 66.1288C1045.1 66.2281 1044.98 66.4165 1044.98 66.6414C1044.98 66.8497 1045.09 67.0382 1045.27 67.1341C1045.05 67.2366 1044.9 67.4581 1044.9 67.7161C1044.9 67.9674 1045.05 68.1823 1045.25 68.2881C1044.98 68.4072 1044.79 68.675 1044.79 68.9924C1044.79 69.2967 1044.97 69.5645 1045.23 69.6835C1044.88 69.8125 1044.63 70.1564 1044.63 70.5532C1044.63 70.9632 1044.89 71.3104 1045.25 71.4361C1044.76 71.5683 1044.4 72.0147 1044.4 72.5438C1044.4 72.9902 1044.66 73.3804 1045.03 73.5656C1044.57 73.7706 1044.23 74.2335 1044.23 74.7758C1044.23 75.3082 1044.55 75.7612 1044.99 75.9729C1044.52 76.244 1044.18 76.8557 1044.18 77.5634C1044.18 77.656 1044.18 77.7519 1044.21 77.8411C1043.64 78.1387 1043.58 78.5785 1043.58 78.5785C1042.92 81.3131 1041.14 80.4038 1037.04 84.352C1032.94 88.3035 1035.42 93.7595 1035.42 93.7595H1034.46V95.0227H1034.96V112.416H1033.46V113.788H1034V132.759H1032.88V134.194H1033.46V154.064H1032.43V155.555H1033.03V176.129H1032.01V177.667H1032.63V198.899H1031.37V200.513H1032.01V222.753H1030.5V224.463H1031.17V248.083H1028.54V250.014H1029.31V276.705H1027.72V278.732H1028.54V306.69H1017.15V311.042H1013.24V315.39H1009.86V319.742H1006.38V324.09H1004.44V304.108H991.188V289.74H987.739V284.049C987.739 284.049 989.756 283.008 986.879 281.077C986.879 281.077 986.42 272.397 980.183 269.308H978.629V263.062L974.261 259.977V257.391C974.261 257.391 974.244 256.128 972.551 255.423C971.625 255.81 971.199 256.353 971.007 256.759C963.792 254.511 933.575 244.399 892.7 221.682C850.704 198.353 788.792 156.712 729.538 89.808C728.55 88.4126 727.557 87.0006 726.559 85.5689L729.118 80.0103H730.325V64.8227H728.9C723.236 53.7618 721.972 45.8787 721.691 43.0548V41.2328H720.613V37.4004C720.613 37.4004 720.749 36.3984 719.502 36.3984C718.246 36.3984 718.398 37.4004 718.398 37.4004V41.2328H717.32V43.0548C717.032 45.8622 715.776 53.7618 710.111 64.8227H708.679V80.0103H709.873L712.432 85.5689C711.454 87.0006 710.448 88.4126 709.456 89.808V89.8279C650.216 156.712 588.304 198.353 546.325 221.682C507.447 243.265 478.222 253.463 469.254 256.362L426.779 235.686V233.867H425.357V227.326L428.588 223.782V219.44L447.274 206.752L461.364 204.543C461.364 204.543 466.45 203.065 464.674 199.163C462.902 195.262 465.147 202.176 458.467 199.163L408.251 181.364V179.082H407.461V175.216L410.46 171.275V168.52H409.276V166.705L421.495 155.433H430.955C430.955 155.433 435.684 155.194 433.32 149.91C430.955 144.633 434.265 153.303 425.751 150.228L401.31 143.604C401.31 143.604 400.345 142.05 398.989 141.396C397.627 140.748 396.208 138.912 395.914 137.14C395.616 135.364 395.95 133.162 395.163 132.527C394.376 131.899 394.214 131.39 394.687 130.953C395.163 130.517 395.087 130.126 394.452 129.498C393.824 128.863 394.968 128.433 394.26 127.679C393.549 126.932 394.049 126.678 393.397 126.026C392.749 125.378 393.496 124.224 392.561 124.224C391.625 124.224 392.376 125.378 391.724 126.026C391.073 126.678 391.579 126.932 390.868 127.679C390.157 128.433 391.301 128.863 390.669 129.498C390.038 130.126 389.958 130.517 390.434 130.953C390.907 131.39 390.749 131.899 389.958 132.527C389.175 133.162 389.509 135.364 389.211 137.14C388.913 138.912 387.495 140.748 386.139 141.396C384.78 142.05 383.808 143.604 383.808 143.604L359.374 150.228C350.859 153.303 354.173 144.633 351.805 149.91C349.441 155.194 354.173 155.433 354.173 155.433H363.63L375.848 166.705V168.52H374.668V171.275L377.66 175.216V179.082H376.877V181.364L326.657 199.163C319.978 202.176 322.22 195.262 320.45 199.163C318.671 203.065 323.764 204.543 323.764 204.543L337.854 206.752L356.537 219.44V223.782L359.768 227.326V233.867H358.349V235.686L301.903 263.161L285.819 254.507V250.539L289.721 249.329V247.044L301.622 235.481H307.471V232.115C307.471 232.115 310.428 231.612 308.913 228.924C307.402 226.235 309.151 231.106 305.183 228.487L276.388 213.898V212.483H274.926V210.214H274.344V209.017C274.344 209.017 275.069 209.017 275.069 207.896C275.069 206.769 274.027 206.752 274.027 205.324C274.027 203.895 273.964 203.598 273.749 203.379C273.749 203.379 273.726 203.36 273.7 203.333L273.617 191.641C273.617 191.578 273.567 191.528 273.508 191.528C273.442 191.528 273.389 191.578 273.389 191.641L273.313 203.333C273.28 203.356 273.263 203.379 273.263 203.379C273.048 203.598 272.985 203.895 272.985 205.324C272.985 206.752 271.944 206.769 271.944 207.896C271.944 209.017 272.661 209.017 272.661 209.017V210.214H271.53V206.971C271.53 206.971 272.575 206.6 271.226 204.653C269.884 202.702 268.303 201.425 268.303 198.631C268.303 195.844 266.828 197.725 266.828 196.078C266.828 196.078 267.866 196.148 267.866 195.222C267.866 194.296 266.574 195.202 266.574 194.061C266.574 192.92 267.665 193.373 267.665 192.097C267.665 190.817 266.302 191.859 266.302 191.052V190.487H266.491C266.716 190.487 266.894 190.305 266.894 190.083C266.894 189.858 266.716 189.68 266.491 189.68H266.302V188.985H266.491C266.716 188.985 266.894 188.804 266.894 188.582C266.894 188.357 266.716 188.179 266.491 188.179H266.302C266.299 188.109 266.276 187.798 266.038 187.798C266.038 187.798 265.886 187.815 265.886 187.587V187.276C266.187 187.183 266.408 186.896 266.408 186.568C266.408 186.231 266.187 185.943 265.886 185.851V182.124C267.523 182.081 266.911 181.555 266.524 181.205C266.121 180.834 266.15 179.234 266.15 178.513C266.15 178.143 266.015 177.964 265.886 177.882V177.663C265.886 177.663 265.899 177.425 265.648 177.425C265.4 177.425 265.41 177.663 265.41 177.663V177.882C265.281 177.964 265.145 178.143 265.145 178.513C265.145 179.234 265.178 180.834 264.771 181.205C264.388 181.555 263.773 182.081 265.41 182.124V185.851C265.105 185.943 264.89 186.231 264.89 186.568C264.89 186.896 265.105 187.183 265.41 187.276V187.587C265.41 187.815 265.257 187.798 265.257 187.798C265.023 187.798 264.996 188.109 264.996 188.179H264.808C264.58 188.179 264.401 188.357 264.401 188.582C264.401 188.804 264.58 188.985 264.808 188.985H264.996V189.68H264.808C264.58 189.68 264.401 189.858 264.401 190.083C264.401 190.305 264.58 190.487 264.808 190.487H264.996V191.052C264.996 191.859 263.631 190.817 263.631 192.097C263.631 193.373 264.725 192.92 264.725 194.061C264.725 195.202 263.429 194.296 263.429 195.222C263.429 196.148 264.47 196.078 264.47 196.078C264.47 197.725 262.992 195.844 262.992 198.631C262.992 201.425 261.412 202.702 260.069 204.653C258.72 206.6 259.765 206.971 259.765 206.971V210.214H258.634V209.017C258.634 209.017 259.355 209.017 259.355 207.896C259.355 206.769 258.31 206.752 258.31 205.324C258.31 203.895 258.25 203.598 258.036 203.379C258.036 203.379 258.016 203.356 257.983 203.333L257.907 191.641C257.907 191.578 257.854 191.528 257.788 191.528C257.728 191.528 257.678 191.578 257.678 191.641L257.596 203.333C257.566 203.36 257.546 203.379 257.546 203.379C257.331 203.598 257.268 203.895 257.268 205.324C257.268 206.752 256.23 206.769 256.23 207.896C256.23 209.017 256.951 209.017 256.951 209.017V210.214H256.369V212.483H254.907V213.898L226.112 228.487C222.147 231.106 223.893 226.235 222.382 228.924C220.868 231.612 223.827 232.115 223.827 232.115V235.481H229.677L241.575 247.044V249.329L245.476 250.539V254.507L196.692 280.763C193.637 282.882 194.777 276.761 193.365 280.763C191.957 284.76 195.555 285.101 195.555 285.101H202.813L212.095 301.036V306.684L213.404 307.692V335.353H139.581C123.762 335.353 110.941 348.173 110.941 363.988H1328.05C1328.05 348.173 1315.23 335.353 1299.41 335.353Z" fill="#2A2A2A"/>
</g>
</svg>
