<svg width="440" height="1097" viewBox="0 0 440 1097" fill="none" xmlns="http://www.w3.org/2000/svg">
<path d="M439.89 0L439.89 890H439.548C439.845 893.949 440 897.952 440 902C440 956.184 412.766 1002.25 374.812 1019.12C357.811 1055 326.868 1079 291.514 1079C285.162 1079 278.954 1078.22 272.942 1076.75C257.737 1089.55 239.546 1097 220 1097C199.369 1097 180.249 1088.7 164.555 1074.57C156.31 1077.46 147.627 1079 138.66 1079C95.4511 1079 58.8286 1043.16 46.1973 993.587C18.8904 972.074 0.555378 933.794 0.0126953 890H0L0 0H439.89Z" fill="#FFF7E6"/>
</svg>
