<svg width="61" height="50" viewBox="0 0 61 50" fill="none" xmlns="http://www.w3.org/2000/svg">
<g clip-path="url(#clip0_1285_2085)">
<path d="M24.4126 -0.210938V9.90391C21.1974 10.0804 18.7628 10.6639 17.1115 11.6559C15.4589 12.6478 14.298 14.2561 13.6275 16.482C12.9584 18.7079 12.6225 21.8917 12.6225 26.0347H24.4126V50.1654H0.230469V27.2246C0.230469 17.7487 2.27342 10.8076 6.35934 6.39995C10.4465 1.99227 16.4639 -0.210938 24.4126 -0.210938ZM60.9197 -0.210938V9.90391C57.7044 10.0804 55.2711 10.6425 53.6185 11.5903C51.9659 12.5369 50.7708 14.1465 50.0345 16.4165C49.2982 18.6852 48.9294 21.8917 48.9294 26.0347H60.9197V50.1654H36.6045V27.2246C36.6045 17.7487 38.636 10.8076 42.6991 6.39995C46.7635 1.99227 52.8366 -0.210938 60.9197 -0.210938Z" fill="#FEA800"/>
</g>
<defs>
<clipPath id="clip0_1285_2085">
<rect width="61" height="50" fill="white"/>
</clipPath>
</defs>
</svg>
