<svg width="72" height="72" viewBox="0 0 72 72" fill="none" xmlns="http://www.w3.org/2000/svg">
<rect width="72" height="72" rx="36" fill="#FEA800"/>
<path d="M40.375 36C40.375 38.4163 38.4162 40.375 36 40.375C33.5838 40.375 31.625 38.4163 31.625 36C31.625 33.5838 33.5838 31.625 36 31.625C38.4162 31.625 40.375 33.5838 40.375 36Z" stroke="black" stroke-width="2.625" stroke-linecap="round" stroke-linejoin="round"/>
<path d="M24.8438 36.875H24.625M25.0625 36.875C25.0625 37.1167 24.8666 37.3125 24.625 37.3125C24.3834 37.3125 24.1875 37.1167 24.1875 36.875C24.1875 36.6333 24.3834 36.4375 24.625 36.4375C24.8666 36.4375 25.0625 36.6333 25.0625 36.875Z" stroke="black" stroke-width="2.625" stroke-linecap="round" stroke-linejoin="round"/>
<path d="M47.5938 35.125H47.375M47.8125 35.125C47.8125 35.3667 47.6167 35.5625 47.375 35.5625C47.1333 35.5625 46.9375 35.3667 46.9375 35.125C46.9375 34.8833 47.1333 34.6875 47.375 34.6875C47.6167 34.6875 47.8125 34.8833 47.8125 35.125Z" stroke="black" stroke-width="2.625" stroke-linecap="round" stroke-linejoin="round"/>
<path d="M43 23.75C47.3389 23.75 50.333 24.4224 51.9826 24.9336C52.9323 25.2279 53.5 26.1281 53.5 27.1223V44.1941C53.5 46.1455 51.3508 47.6137 49.4334 47.2517C47.7882 46.941 45.6437 46.6915 43 46.6915C34.6859 46.6915 32.6918 49.8515 20.5034 47.1636C19.3271 46.9043 18.5 45.8464 18.5 44.6419V27.112C18.5 25.4043 20.1114 24.1589 21.7865 24.4913C32.8442 26.6856 34.9866 23.75 43 23.75Z" stroke="black" stroke-width="2.625" stroke-linecap="round" stroke-linejoin="round"/>
</svg>
