<svg width="50" height="50" viewBox="0 0 50 50" fill="none" xmlns="http://www.w3.org/2000/svg">
<rect width="50" height="50" rx="25" fill="#FEA800"/>
<g clip-path="url(#clip0_1213_56160)">
<path d="M37.1785 31.3404C35.8572 29.5889 33.9713 28.3342 31.8314 27.7832L31.7647 27.769L30.2229 30.3394C30.2219 30.6816 30.0838 31.0096 29.8388 31.2516C29.5938 31.4936 29.2617 31.63 28.9152 31.631C28.196 31.631 27.6075 31.0498 26.921 29.3396V29.2983C26.921 28.8701 26.7488 28.4594 26.4422 28.1566C26.1357 27.8538 25.7199 27.6837 25.2864 27.6837C24.8529 27.6837 24.4371 27.8538 24.1305 28.1566C23.824 28.4594 23.6518 28.8701 23.6518 29.2983V29.3409V29.3383C22.9195 31.0498 22.3258 31.6297 21.6078 31.6297C21.2613 31.6287 20.9293 31.4923 20.6843 31.2503C20.4393 31.0083 20.3012 30.6803 20.3002 30.3381L18.8068 27.7625C16.652 28.3038 14.7487 29.5551 13.4112 31.3094L13.3929 31.334C12.8642 32.191 12.5691 33.1686 12.5364 34.1717V34.1808C12.5429 34.3745 12.5364 34.6006 12.5364 34.8266V37.41C12.5364 38.0951 12.8119 38.7522 13.3024 39.2366C13.7929 39.7211 14.4581 39.9933 15.1518 39.9933H35.421C36.1146 39.9933 36.7799 39.7211 37.2704 39.2366C37.7608 38.7522 38.0364 38.0951 38.0364 37.41V34.8266C38.0364 34.6019 38.0298 34.3745 38.0364 34.1808C38.0048 33.1658 37.7045 32.1767 37.1655 31.312L37.1798 31.3378L37.1785 31.3404ZM18.4197 15.834C18.4197 19.6056 20.7997 25.1469 25.2851 25.1469C29.692 25.1469 32.1505 19.6056 32.1505 15.834V15.75C32.1505 14.8595 31.9729 13.9777 31.6279 13.1549C31.2828 12.3322 30.7771 11.5846 30.1396 10.9549C29.5021 10.3252 28.7453 9.82573 27.9123 9.48494C27.0794 9.14415 26.1867 8.96875 25.2851 8.96875C24.3835 8.96875 23.4908 9.14415 22.6578 9.48494C21.8249 9.82573 21.068 10.3252 20.4305 10.9549C19.793 11.5846 19.2873 12.3322 18.9423 13.1549C18.5973 13.9777 18.4197 14.8595 18.4197 15.75V15.8378V15.834ZM33.1103 18.0556C33.1103 20.5124 34.6612 24.1239 37.5826 24.1239C40.453 24.1239 42.0549 20.5137 42.0549 18.0556V17.9885C42.0549 16.8165 41.5836 15.6926 40.7446 14.8639C39.9057 14.0352 38.7678 13.5697 37.5813 13.5697C36.3948 13.5697 35.257 14.0352 34.418 14.8639C33.579 15.6926 33.1077 16.8165 33.1077 17.9885V18.0595V18.0556H33.1103ZM8.00262 20.1223C8.00262 22.579 9.55354 26.1905 12.4749 26.1905C15.3453 26.1905 16.9472 22.5803 16.9472 20.1223V20.0551C16.9472 18.8832 16.4759 17.7593 15.6369 16.9306C14.798 16.1019 13.6601 15.6363 12.4736 15.6363C11.2871 15.6363 10.1493 16.1019 9.31029 16.9306C8.47133 17.7593 8 18.8832 8 20.0551V20.1262V20.1223H8.00262Z" fill="black"/>
</g>
<defs>
<clipPath id="clip0_1213_56160">
<rect width="34" height="31" fill="white" transform="translate(8 9)"/>
</clipPath>
</defs>
</svg>
