<svg width="50" height="50" viewBox="0 0 50 50" fill="none" xmlns="http://www.w3.org/2000/svg">
<rect width="50" height="50" rx="25" fill="#FEA800"/>
<path d="M20.9658 15.6639C22.7607 12.4453 23.6574 10.8359 24.999 10.8359C26.3406 10.8359 27.2374 12.4453 29.0323 15.6639L29.4969 16.4969C30.0069 17.4121 30.2619 17.8697 30.6586 18.1714C31.0553 18.4732 31.5511 18.5851 32.5428 18.8089L33.4438 19.0129C36.9288 19.802 38.6699 20.1959 39.0849 21.5289C39.4986 22.8606 38.3114 24.2504 35.9357 27.0284L35.3209 27.7467C34.6465 28.5358 34.3079 28.931 34.1564 29.4184C34.0048 29.9071 34.0558 30.4341 34.1578 31.4867L34.2513 32.4458C34.6097 36.1532 34.7896 38.0062 33.7044 38.8293C32.6193 39.6524 30.9873 38.9015 27.7261 37.3999L26.8804 37.0117C25.9539 36.5839 25.4906 36.3714 24.999 36.3714C24.5074 36.3714 24.0442 36.5839 23.1177 37.0117L22.2734 37.3999C19.0108 38.9015 17.3788 39.6524 16.295 38.8307C15.2084 38.0062 15.3884 36.1532 15.7468 32.4458L15.8403 31.4881C15.9423 30.4341 15.9933 29.9071 15.8403 29.4198C15.6901 28.931 15.3515 28.5358 14.6772 27.7481L14.0624 27.0284C11.6866 24.2518 10.4994 22.862 10.9131 21.5289C11.3268 20.1959 13.0707 19.8006 16.5557 19.0129L17.4567 18.8089C18.4469 18.5851 18.9414 18.4732 19.3394 18.1714C19.7375 17.8697 19.9911 17.4121 20.5011 16.4969L20.9658 15.6639Z" fill="black"/>
</svg>
