<svg width="72" height="72" viewBox="0 0 72 72" fill="none" xmlns="http://www.w3.org/2000/svg">
<rect width="72" height="72" rx="36" fill="#FEA800"/>
<path d="M43 18.5V25.5M29 18.5V25.5" stroke="black" stroke-width="2.625" stroke-linecap="round" stroke-linejoin="round"/>
<path d="M37.75 22H34.25C27.6503 22 24.3505 22 22.3002 24.0502C20.25 26.1005 20.25 29.4003 20.25 36V39.5C20.25 46.0996 20.25 49.3996 22.3002 51.4497C24.3505 53.5 27.6503 53.5 34.25 53.5H37.75C44.3496 53.5 47.6496 53.5 49.6997 51.4497C51.75 49.3996 51.75 46.0996 51.75 39.5V36C51.75 29.4003 51.75 26.1005 49.6997 24.0502C47.6496 22 44.3496 22 37.75 22Z" stroke="black" stroke-width="2.625" stroke-linecap="round" stroke-linejoin="round"/>
<path d="M20.25 32.5H51.75" stroke="black" stroke-width="2.625" stroke-linecap="round" stroke-linejoin="round"/>
<path d="M36.2202 39.5H36.0014M36.2202 46.5H36.0014M28.3438 39.5H28.125M28.3438 46.5H28.125M44.0938 39.5H43.875M36.4389 39.5C36.4389 39.7417 36.2431 39.9375 36.0014 39.9375C35.7599 39.9375 35.5639 39.7417 35.5639 39.5C35.5639 39.2583 35.7599 39.0625 36.0014 39.0625C36.2431 39.0625 36.4389 39.2583 36.4389 39.5ZM36.4389 46.5C36.4389 46.7417 36.2431 46.9375 36.0014 46.9375C35.7599 46.9375 35.5639 46.7417 35.5639 46.5C35.5639 46.2583 35.7599 46.0625 36.0014 46.0625C36.2431 46.0625 36.4389 46.2583 36.4389 46.5ZM28.5625 39.5C28.5625 39.7417 28.3666 39.9375 28.125 39.9375C27.8834 39.9375 27.6875 39.7417 27.6875 39.5C27.6875 39.2583 27.8834 39.0625 28.125 39.0625C28.3666 39.0625 28.5625 39.2583 28.5625 39.5ZM28.5625 46.5C28.5625 46.7417 28.3666 46.9375 28.125 46.9375C27.8834 46.9375 27.6875 46.7417 27.6875 46.5C27.6875 46.2583 27.8834 46.0625 28.125 46.0625C28.3666 46.0625 28.5625 46.2583 28.5625 46.5ZM44.3125 39.5C44.3125 39.7417 44.1167 39.9375 43.875 39.9375C43.6333 39.9375 43.4375 39.7417 43.4375 39.5C43.4375 39.2583 43.6333 39.0625 43.875 39.0625C44.1167 39.0625 44.3125 39.2583 44.3125 39.5Z" stroke="black" stroke-width="2.625" stroke-linecap="round" stroke-linejoin="round"/>
</svg>
