<svg width="72" height="72" viewBox="0 0 72 72" fill="none" xmlns="http://www.w3.org/2000/svg">
<rect width="72" height="72" rx="36" fill="#FEA800"/>
<path d="M35.1257 28.9998L36.8757 28.9998C38.8088 28.9998 40.3757 30.5667 40.3757 32.4998M40.3757 32.4998V34.2498M40.3757 32.4998C40.3757 31.5333 41.1592 30.7498 42.1257 30.7498C44.0588 30.7498 45.6257 32.3167 45.6257 34.2498M45.6257 34.2498V35.9998M45.6257 34.2498C45.6257 33.3337 46.4484 32.6368 47.3519 32.7875L47.9511 32.8872C49.6388 33.1686 50.8757 34.6287 50.8757 36.3396L50.875 38.9167C50.875 42.72 50.875 44.6217 50.2956 46.1357C49.9596 47.014 49.073 48.134 48.3641 48.9434C47.7509 49.6434 47.375 50.5314 47.375 51.462V53.5M35.1254 32.4998V21.1248C35.1254 19.6749 33.9501 18.4998 32.5004 18.4998C31.0506 18.4998 29.8754 19.6749 29.8754 21.1248L29.875 38.559L27.0395 35.7145C25.7954 34.4664 23.746 34.5804 22.6469 35.9587C21.8059 37.0132 21.7827 38.5049 22.5904 39.5853L28.8899 47.6322C30.0951 49.1718 30.75 51.5448 30.75 53.5" stroke="black" stroke-width="2.625" stroke-linecap="round" stroke-linejoin="round"/>
</svg>
