<svg width="72" height="72" viewBox="0 0 72 72" fill="none" xmlns="http://www.w3.org/2000/svg">
<rect width="72" height="72" rx="36" fill="#FEA800"/>
<path d="M19.375 37.75L22.875 39.5" stroke="black" stroke-width="2.625" stroke-linecap="round" stroke-linejoin="round"/>
<path d="M52.625 38.625L49.125 39.5" stroke="black" stroke-width="2.625" stroke-linecap="round" stroke-linejoin="round"/>
<path d="M29 47.375L29.4299 46.3001C30.0693 44.7019 30.3889 43.9027 31.0556 43.4513C31.7222 43 32.583 43 34.3044 43H37.6956C39.417 43 40.2779 43 40.9445 43.4513C41.611 43.9027 41.9308 44.7019 42.57 46.3001L43 47.375" stroke="black" stroke-width="2.625" stroke-linecap="round" stroke-linejoin="round"/>
<path d="M18.5 46.5V51.5435C18.5 52.2062 18.9213 52.8122 19.5883 53.1087C20.0211 53.301 20.4344 53.5 20.9335 53.5H23.9415C24.4406 53.5 24.8539 53.301 25.2867 53.1087C25.9537 52.8122 26.375 52.2062 26.375 51.5435V48.25" stroke="black" stroke-width="2.625" stroke-linecap="round" stroke-linejoin="round"/>
<path d="M45.625 48.25V51.5435C45.625 52.2062 46.0464 52.8122 46.7133 53.1087C47.1461 53.301 47.5595 53.5 48.0586 53.5H51.0664C51.5655 53.5 51.9789 53.301 52.4117 53.1087C53.0786 52.8122 53.5 52.2062 53.5 51.5435V46.5" stroke="black" stroke-width="2.625" stroke-linecap="round" stroke-linejoin="round"/>
<path d="M50 31.625L51.75 30.75" stroke="black" stroke-width="2.625" stroke-linecap="round" stroke-linejoin="round"/>
<path d="M22 31.625L20.25 30.75" stroke="black" stroke-width="2.625" stroke-linecap="round" stroke-linejoin="round"/>
<path d="M22.875 33.375L24.7795 27.6614C25.5496 25.3513 25.9346 24.1963 26.8512 23.5357C27.7678 22.875 28.9853 22.875 31.4203 22.875H40.5797C43.0147 22.875 44.2322 22.875 45.1488 23.5357C46.0655 24.1963 46.4505 25.3513 47.2205 27.6614L49.125 33.375" stroke="black" stroke-width="2.625" stroke-linejoin="round"/>
<path d="M42.125 22.875C41.7047 20.7635 41.4945 19.7077 40.9941 19.1039C40.4938 18.5 39.8292 18.5 38.4999 18.5H33.5001C32.1708 18.5 31.5062 18.5 31.0059 19.1039C30.5055 19.7077 30.2953 20.7635 29.875 22.875" stroke="black" stroke-width="2.625" stroke-linejoin="round"/>
<path d="M22.875 33.375H49.125C50.8001 35.0501 53.5 37.3828 53.5 39.9855V45.7216C53.5 46.6645 52.8359 47.4579 51.9544 47.5682L46.5 48.25H25.5L20.0455 47.5682C19.1642 47.4579 18.5 46.6645 18.5 45.7216V39.9855C18.5 37.3828 21.1999 35.0501 22.875 33.375Z" stroke="black" stroke-width="2.625" stroke-linejoin="round"/>
</svg>
