<svg width="72" height="72" viewBox="0 0 72 72" fill="none" xmlns="http://www.w3.org/2000/svg">
<rect width="72" height="72" rx="36" fill="#FEA800"/>
<path d="M35.9923 28.1328V40.3829M42.125 34.2502H29.875" stroke="black" stroke-width="2.625" stroke-linecap="round" stroke-linejoin="round"/>
<path d="M47.7404 21.1168C44.4289 19.4692 40.3766 18.5 36 18.5C31.6234 18.5 27.5711 19.4692 24.2595 21.1168C22.6356 21.9249 21.8236 22.3289 21.0368 23.5991C20.25 24.8694 20.25 26.0993 20.25 28.5592V34.6649C20.25 44.6109 28.1991 50.1407 32.8028 52.5091C34.0867 53.1698 34.7286 53.5 36 53.5C37.2714 53.5 37.9133 53.1698 39.1971 52.5091C43.8008 50.1407 51.75 44.6109 51.75 34.6649V28.5592C51.75 26.0994 51.75 24.8694 50.9632 23.5991C50.1764 22.3288 49.3644 21.9249 47.7404 21.1168Z" stroke="black" stroke-width="2.625" stroke-linecap="round" stroke-linejoin="round"/>
</svg>
