<svg width="50" height="50" viewBox="0 0 50 50" fill="none" xmlns="http://www.w3.org/2000/svg">
<rect width="50" height="50" rx="25" fill="#FEA800"/>
<path d="M10.832 33.5V37.5828C10.832 38.1193 11.1731 38.6099 11.713 38.8499C12.0634 39.0056 12.398 39.1667 12.802 39.1667H15.237C15.6411 39.1667 15.9757 39.0056 16.326 38.8499C16.866 38.6099 17.207 38.1193 17.207 37.5828V34.9167" stroke="black" stroke-width="2.125" stroke-linecap="round" stroke-linejoin="round"/>
<path d="M32.793 34.9167V37.5828C32.793 38.1193 33.1341 38.6099 33.674 38.8499C34.0243 39.0056 34.359 39.1667 34.763 39.1667H37.198C37.602 39.1667 37.9366 39.0056 38.2869 38.8499C38.8268 38.6099 39.168 38.1193 39.168 37.5828V33.5" stroke="black" stroke-width="2.125" stroke-linecap="round" stroke-linejoin="round"/>
<path d="M36.332 21.4583L37.7487 20.75" stroke="black" stroke-width="2.125" stroke-linecap="round" stroke-linejoin="round"/>
<path d="M13.6667 21.4583L12.25 20.75" stroke="black" stroke-width="2.125" stroke-linecap="round" stroke-linejoin="round"/>
<path d="M14.375 22.875L15.9168 18.2497C16.5401 16.3797 16.8518 15.4446 17.5938 14.9098C18.3358 14.375 19.3214 14.375 21.2926 14.375H28.7074C30.6786 14.375 31.6641 14.375 32.4062 14.9098C33.1482 15.4446 33.4599 16.3797 34.0832 18.2497L35.625 22.875" stroke="black" stroke-width="2.125" stroke-linejoin="round"/>
<path d="M29.9596 14.3776C29.6194 12.6683 29.4492 11.8136 29.0442 11.3248C28.6392 10.8359 28.1011 10.8359 27.025 10.8359H22.9776C21.9015 10.8359 21.3635 10.8359 20.9584 11.3248C20.5534 11.8136 20.3832 12.6683 20.043 14.3776" stroke="black" stroke-width="2.125" stroke-linejoin="round"/>
<path d="M14.3737 22.875H35.6237C36.9797 24.231 39.1654 26.1195 39.1654 28.2263V32.8699C39.1654 33.6332 38.6277 34.2755 37.9142 34.3647L33.4987 34.9167H16.4987L12.0832 34.3647C11.3697 34.2755 10.832 33.6332 10.832 32.8699V28.2263C10.832 26.1195 13.0177 24.231 14.3737 22.875Z" fill="black" stroke="black" stroke-width="2.125" stroke-linejoin="round"/>
<path d="M11.543 26.4219L14.3763 27.8385" stroke="#FEA800" stroke-width="2.125" stroke-linecap="round" stroke-linejoin="round"/>
<path d="M38.4583 27.125L35.625 27.8333" stroke="#FEA800" stroke-width="2.125" stroke-linecap="round" stroke-linejoin="round"/>
<path d="M19.332 34.2135L19.6801 33.3434C20.1976 32.0496 20.4564 31.4026 20.9961 31.0372C21.5357 30.6719 22.2325 30.6719 23.6261 30.6719H26.3713C27.7649 30.6719 28.4617 30.6719 29.0013 31.0372C29.541 31.4026 29.7998 32.0496 30.3173 33.3434L30.6654 34.2135" stroke="#FEA800" stroke-width="2.125" stroke-linecap="round" stroke-linejoin="round"/>
</svg>
