<svg width="72" height="72" viewBox="0 0 72 72" fill="none" xmlns="http://www.w3.org/2000/svg">
<rect width="72" height="72" rx="36" fill="#FEA800"/>
<path d="M34.2 45.2676L37.8 49.02C38.1546 49.3896 38.5755 49.6827 39.0388 49.8828C39.502 50.0828 39.9986 50.1857 40.5 50.1857C41.0014 50.1857 41.498 50.0828 41.9612 49.8828C42.4245 49.6827 42.8454 49.3896 43.2 49.02C43.5546 48.6504 43.8358 48.2117 44.0277 47.7288C44.2196 47.2459 44.3184 46.7284 44.3184 46.2057C44.3184 45.683 44.2196 45.1655 44.0277 44.6826C43.8358 44.1998 43.5546 43.761 43.2 43.3914M39.6 39.639L44.1 44.3295C44.8161 45.0759 45.7873 45.4952 46.8 45.4952C47.8127 45.4952 48.7839 45.0759 49.5 44.3295C50.2161 43.5831 50.6184 42.5708 50.6184 41.5152C50.6184 40.4597 50.2161 39.4473 49.5 38.7009L42.516 31.4213C41.5035 30.3673 40.131 29.7752 38.7 29.7752C37.269 29.7752 35.8965 30.3673 34.884 31.4213L33.3 33.0724C32.5839 33.8188 31.6127 34.2381 30.6 34.2381C29.5873 34.2381 28.6161 33.8188 27.9 33.0724C27.1839 32.326 26.7816 31.3137 26.7816 30.2581C26.7816 29.2025 27.1839 28.1902 27.9 27.4438L32.958 22.1717C34.6 20.4646 36.7414 19.3772 39.0432 19.0816C41.3449 18.7859 43.6755 19.2989 45.666 20.5394L46.512 21.0648C47.2784 21.5469 48.1897 21.7141 49.068 21.5338L52.2 20.8771M52.2 19.0009L54 39.639H50.4M19.8 19.0009L18 39.639L29.7 51.8343C30.4161 52.5807 31.3873 53 32.4 53C33.4127 53 34.3839 52.5807 35.1 51.8343C35.8161 51.0879 36.2184 50.0756 36.2184 49.02C36.2184 47.9644 35.8161 46.9521 35.1 46.2057M19.8 20.8771H34.2" stroke="black" stroke-width="2.625" stroke-linecap="round" stroke-linejoin="round"/>
</svg>
