<svg width="72" height="72" viewBox="0 0 72 72" fill="none" xmlns="http://www.w3.org/2000/svg">
<rect width="72" height="72" rx="36" fill="#FEA800"/>
<path d="M35.5513 41.8335V50.8077C35.5513 50.8077 40.9897 49.8206 42.7308 47.218C44.6692 44.3104 42.7308 38.2438 42.7308 38.2438M35.5513 41.8335C38.0582 40.8794 40.4633 39.6768 42.7308 38.2438M35.5513 41.8335L30.1667 36.4489M30.1667 36.4489C31.1218 33.971 32.3245 31.5958 33.7564 29.3593C35.8478 26.0155 38.7598 23.2623 42.2156 21.3616C45.6714 19.4609 49.5561 18.476 53.5 18.5004C53.5 23.3824 52.1 31.9618 42.7308 38.2438M30.1667 36.4489H21.1923C21.1923 36.4489 22.1795 31.0105 24.7821 29.2695C27.6897 27.3311 33.7564 29.3593 33.7564 29.3593M22.0897 44.5258C19.3974 46.7873 18.5 53.5 18.5 53.5C18.5 53.5 25.2128 52.6026 27.4744 49.9103C28.7487 48.4026 28.7308 46.0873 27.3128 44.6873C26.6152 44.0214 25.6962 43.6367 24.7322 43.6068C23.7682 43.577 22.8272 43.9043 22.0897 44.5258Z" stroke="black" stroke-width="2.625" stroke-linejoin="round"/>
</svg>
