<svg width="72" height="72" viewBox="0 0 72 72" fill="none" xmlns="http://www.w3.org/2000/svg">
<rect width="72" height="72" rx="36" fill="#FEA800"/>
<path d="M15.1313 35.3039C14.9562 35.753 14.9562 36.247 15.1313 36.6961C16.8357 40.6327 19.729 43.9986 23.4443 46.3671C27.1595 48.7356 31.5294 50 36 50C40.4706 50 44.8405 48.7356 48.5557 46.3671C52.271 43.9986 55.1643 40.6327 56.8687 36.6961C57.0438 36.247 57.0438 35.753 56.8687 35.3039C55.1643 31.3673 52.271 28.0014 48.5557 25.6329C44.8405 23.2644 40.4706 22 36 22C31.5294 22 27.1595 23.2644 23.4443 25.6329C19.729 28.0014 16.8357 31.3673 15.1313 35.3039Z" stroke="black" stroke-width="2.625" stroke-linecap="round" stroke-linejoin="round"/>
<path d="M36 42.0005C39.4792 42.0005 42.2997 39.314 42.2997 36C42.2997 32.686 39.4792 29.9995 36 29.9995C32.5208 29.9995 29.7003 32.686 29.7003 36C29.7003 39.314 32.5208 42.0005 36 42.0005Z" stroke="black" stroke-width="2.625" stroke-linecap="round" stroke-linejoin="round"/>
</svg>
