<svg width="72" height="72" viewBox="0 0 72 72" fill="none" xmlns="http://www.w3.org/2000/svg">
<rect width="72" height="72" rx="36" fill="#FEA800"/>
<path d="M36 17C46.4934 17 55 25.5066 55 36C55 46.4934 46.4934 55 36 55C25.5066 55 17 46.4934 17 36C17 25.5066 25.5066 17 36 17Z" stroke="black" stroke-width="2.625" stroke-linecap="round" stroke-linejoin="round"/>
<path d="M36 24.6C42.296 24.6 47.4 29.704 47.4 36C47.4 42.296 42.296 47.4 36 47.4C29.704 47.4 24.6 42.296 24.6 36C24.6 29.704 29.704 24.6 36 24.6Z" stroke="black" stroke-width="2.625" stroke-linecap="round" stroke-linejoin="round"/>
<path d="M36 32.2C38.0987 32.2 39.8 33.9013 39.8 36C39.8 38.0987 38.0987 39.8 36 39.8C33.9013 39.8 32.2 38.0987 32.2 36C32.2 33.9013 33.9013 32.2 36 32.2Z" stroke="black" stroke-width="2.625" stroke-linecap="round" stroke-linejoin="round"/>
</svg>
