<svg width="40" height="40" viewBox="0 0 40 40" fill="none" xmlns="http://www.w3.org/2000/svg">
<rect width="40" height="40" rx="20" fill="#E6F3FF"/>
<path d="M15.5 27.5C15.5 26.5344 15.8285 25.5576 16.6309 25.0204C17.5932 24.3761 18.7524 24 20 24C21.2476 24 22.4068 24.3761 23.3691 25.0204C24.1715 25.5576 24.5 26.5344 24.5 27.5" stroke="#0084FF" stroke-width="1.5" stroke-linecap="round" stroke-linejoin="round"/>
<path d="M20 21.5C21.3807 21.5 22.5 20.3807 22.5 19C22.5 17.6193 21.3807 16.5 20 16.5C18.6193 16.5 17.5 17.6193 17.5 19C17.5 20.3807 18.6193 21.5 20 21.5Z" stroke="#0084FF" stroke-width="1.5" stroke-linecap="round" stroke-linejoin="round"/>
<path d="M25.5 19C26.6101 19 27.6415 19.3769 28.4974 20.0224C29.2229 20.5696 29.5 21.4951 29.5 22.4038V22.5" stroke="#0084FF" stroke-width="1.5" stroke-linecap="round" stroke-linejoin="round"/>
<path d="M25.5 16.5C26.6046 16.5 27.5 15.6046 27.5 14.5C27.5 13.3954 26.6046 12.5 25.5 12.5C24.3954 12.5 23.5 13.3954 23.5 14.5C23.5 15.6046 24.3954 16.5 25.5 16.5Z" stroke="#0084FF" stroke-width="1.5" stroke-linecap="round" stroke-linejoin="round"/>
<path d="M14.5 19C13.3899 19 12.3585 19.3769 11.5026 20.0224C10.7771 20.5696 10.5 21.4951 10.5 22.4038V22.5" stroke="#0084FF" stroke-width="1.5" stroke-linecap="round" stroke-linejoin="round"/>
<path d="M14.5 16.5C15.6046 16.5 16.5 15.6046 16.5 14.5C16.5 13.3954 15.6046 12.5 14.5 12.5C13.3954 12.5 12.5 13.3954 12.5 14.5C12.5 15.6046 13.3954 16.5 14.5 16.5Z" stroke="#0084FF" stroke-width="1.5" stroke-linecap="round" stroke-linejoin="round"/>
</svg>
