<svg width="20" height="20" viewBox="0 0 20 20" fill="none" xmlns="http://www.w3.org/2000/svg">
<g clip-path="url(#clip0_1285_1427)">
<path d="M3.75 15.6328C3.75 16.1301 3.94754 16.607 4.29917 16.9586C4.65081 17.3103 5.12772 17.5078 5.625 17.5078C6.12228 17.5078 6.59919 17.3103 6.95082 16.9586C7.30246 16.607 7.5 16.1301 7.5 15.6328C7.5 15.1355 7.30246 14.6586 6.95082 14.307C6.59919 13.9554 6.12228 13.7578 5.625 13.7578C5.12772 13.7578 4.65081 13.9554 4.29917 14.307C3.94754 14.6586 3.75 15.1355 3.75 15.6328ZM3.75 15.6328H3.125C2.79348 15.6328 2.47554 15.5011 2.24112 15.2667C2.0067 15.0323 1.875 14.7143 1.875 14.3828V3.85365M15.6275 15.5303C15.6046 15.9538 15.7261 16.3726 15.9721 16.7182C16.2181 17.0637 16.574 17.3156 16.9816 17.4327C17.3893 17.5498 17.8247 17.5251 18.2165 17.3627C18.6083 17.2003 18.9335 16.9098 19.1388 16.5387C19.3442 16.1675 19.4176 15.7377 19.347 15.3195C19.2764 14.9012 19.066 14.5193 18.7503 14.2361C18.4345 13.9529 18.032 13.7852 17.6086 13.7604C17.1852 13.7356 16.7658 13.8551 16.4192 14.0995M19.375 11.6786C18.7894 11.3998 18.1486 11.256 17.5 11.2578C17.2411 11.2578 16.9839 11.2803 16.7283 11.3253M0.625 3.75781L16.875 5.00781" stroke="black" stroke-width="1.5" stroke-linecap="round" stroke-linejoin="round"/>
<path d="M15 4.86719L16.875 10.0114L16.375 14.5239C16.3412 14.8296 16.1958 15.1121 15.9667 15.3173C15.7376 15.5226 15.4409 15.6362 15.1333 15.6364H7.5" stroke="black" stroke-width="1.5" stroke-linecap="round" stroke-linejoin="round"/>
<path d="M1.875 11.2578H8.125M8.125 11.2578L10.625 15.6328M8.125 11.2578V4.38281M10.625 9.38281L11.25 12.5078H11.875C12.2065 12.5078 12.5245 12.6395 12.7589 12.8739C12.9933 13.1083 13.125 13.4263 13.125 13.7578V15.6328M15 4.86365V3.75781C15 3.42629 14.8683 3.10835 14.6339 2.87393C14.3995 2.63951 14.0815 2.50781 13.75 2.50781C13.4185 2.50781 13.1005 2.63951 12.8661 2.87393C12.6317 3.10835 12.5 3.42629 12.5 3.75781V4.67448" stroke="black" stroke-width="1.5" stroke-linecap="round" stroke-linejoin="round"/>
</g>
<defs>
<clipPath id="clip0_1285_1427">
<rect width="20" height="20" fill="white"/>
</clipPath>
</defs>
</svg>
