<svg width="16" height="16" viewBox="0 0 16 16" fill="none" xmlns="http://www.w3.org/2000/svg">
<path d="M5.33203 4C3.44641 4 2.5036 4 1.91782 4.58579C1.33203 5.17157 1.33203 6.11438 1.33203 8C1.33203 9.8856 1.33203 10.8284 1.91782 11.4142C2.29735 11.7937 2.82676 11.9274 3.66536 11.9744M7.9987 11.9885L8.66536 12C10.551 12 11.4938 12 12.0796 11.4142C12.6654 10.8284 12.6654 9.8856 12.6654 8C12.6654 6.11438 12.6654 5.17157 12.0796 4.58579C11.608 4.11425 10.9052 4.02228 9.66536 4.00435" stroke="black" stroke-linecap="round"/>
<path d="M7.7069 4L5.72649 6.9578C5.41981 7.4158 5.26646 7.64487 5.35863 7.8224C5.45079 8 5.723 8 6.26741 8H7.0633C7.60776 8 7.87997 8 7.9721 8.1776C8.0643 8.35513 7.9109 8.5842 7.60423 9.0422L5.62382 12" stroke="black" stroke-linecap="round"/>
<path d="M12.668 6.33594L13.3528 6.45007C13.807 6.52577 14.034 6.56362 14.2064 6.67374C14.3758 6.782 14.5088 6.93887 14.5877 7.12387C14.668 7.31194 14.668 7.54214 14.668 8.0026C14.668 8.46307 14.668 8.69327 14.5877 8.88134C14.5088 9.06634 14.3758 9.2232 14.2064 9.33147C14.034 9.4416 13.807 9.47947 13.3528 9.55514L12.668 9.66927" stroke="black" stroke-linecap="round"/>
</svg>
