<svg width="20" height="20" viewBox="0 0 20 20" fill="none" xmlns="http://www.w3.org/2000/svg">
<path d="M16.2513 15.8307C17.4019 15.8307 18.3346 14.898 18.3346 13.7474C18.3346 12.5968 17.4019 11.6641 16.2513 11.6641C15.1007 11.6641 14.168 12.5968 14.168 13.7474C14.168 14.898 15.1007 15.8307 16.2513 15.8307Z" stroke="#141B34" stroke-width="1.25"/>
<path d="M3.7513 15.8307C4.9019 15.8307 5.83464 14.898 5.83464 13.7474C5.83464 12.5968 4.9019 11.6641 3.7513 11.6641C2.60071 11.6641 1.66797 12.5968 1.66797 13.7474C1.66797 14.898 2.60071 15.8307 3.7513 15.8307Z" stroke="#141B34" stroke-width="1.25"/>
<path d="M16.8636 6.55537C17.9316 7.85487 18.3026 9.09048 18.3341 9.74381C17.7758 9.48848 17.1489 9.34523 16.4864 9.34523C14.4487 9.34523 12.6196 10.7001 12.1827 12.5051C12.0783 12.9366 12.0261 13.1523 11.9127 13.2415C11.7994 13.3307 11.6165 13.3307 11.2508 13.3307H8.8518C8.4833 13.3307 8.29908 13.3307 8.18525 13.2403C8.07142 13.1498 8.02156 12.9348 7.92185 12.5047C7.50875 10.7231 5.8319 9.1744 4.08628 9.30556C3.91038 9.31881 3.82243 9.3254 3.76209 9.31198C3.70175 9.29848 3.641 9.26423 3.51951 9.19556C3.16878 8.99748 2.81015 8.8094 2.46625 8.59965C1.98713 8.30738 1.68726 7.79364 1.66841 7.23274C1.65769 6.9135 1.84128 6.59627 2.21215 6.68355L7.56271 7.94269C7.96465 8.03727 8.16561 8.08457 8.3383 8.05237C8.51097 8.02018 8.72264 7.8754 9.14605 7.58585C10.2196 6.85171 11.9211 6.15827 13.6171 6.77091C14.0814 6.93862 14.3136 7.02248 14.4458 7.02667C14.5781 7.03086 14.7719 6.97445 15.1596 6.86162C15.7872 6.67894 16.3781 6.58414 16.8636 6.55537ZM16.8636 6.55537C16.1943 5.74082 15.2511 4.90116 13.946 4.16406" stroke="#141B34" stroke-width="1.25" stroke-linecap="round" stroke-linejoin="round"/>
</svg>
