<svg width="20" height="20" viewBox="0 0 20 20" fill="none" xmlns="http://www.w3.org/2000/svg">
<path d="M2.08203 10.8359L3.7487 11.6693" stroke="#141B34" stroke-width="1.5" stroke-linecap="round" stroke-linejoin="round"/>
<path d="M17.9167 11.25L16.25 11.6667" stroke="#141B34" stroke-width="1.5" stroke-linecap="round" stroke-linejoin="round"/>
<path d="M6.66797 15.4193L6.87269 14.9074C7.17714 14.1464 7.32937 13.7658 7.64681 13.5509C7.96424 13.3359 8.37414 13.3359 9.19389 13.3359H10.8087C11.6285 13.3359 12.0384 13.3359 12.3558 13.5509C12.6732 13.7658 12.8255 14.1464 13.1299 14.9074L13.3346 15.4193" stroke="#141B34" stroke-width="1.5" stroke-linecap="round" stroke-linejoin="round"/>
<path d="M1.66797 15V17.4017C1.66797 17.7172 1.86859 18.0058 2.1862 18.147C2.39229 18.2386 2.58912 18.3333 2.82679 18.3333H4.25915C4.49682 18.3333 4.69365 18.2386 4.89974 18.147C5.21734 18.0058 5.41797 17.7172 5.41797 17.4017V15.8333" stroke="#141B34" stroke-width="1.5" stroke-linecap="round" stroke-linejoin="round"/>
<path d="M14.582 15.8333V17.4017C14.582 17.7172 14.7827 18.0058 15.1003 18.147C15.3064 18.2386 15.5032 18.3333 15.7409 18.3333H17.1732C17.4109 18.3333 17.6077 18.2386 17.8138 18.147C18.1314 18.0058 18.332 17.7172 18.332 17.4017V15" stroke="#141B34" stroke-width="1.5" stroke-linecap="round" stroke-linejoin="round"/>
<path d="M16.668 7.91667L17.5013 7.5" stroke="#141B34" stroke-width="1.5" stroke-linecap="round" stroke-linejoin="round"/>
<path d="M3.33333 7.91667L2.5 7.5" stroke="#141B34" stroke-width="1.5" stroke-linecap="round" stroke-linejoin="round"/>
<path d="M3.75 8.75L4.65692 6.02924C5.0236 4.92921 5.20693 4.37919 5.64342 4.0646C6.07989 3.75 6.65966 3.75 7.8192 3.75H12.1808C13.3403 3.75 13.9201 3.75 14.3566 4.0646C14.7931 4.37919 14.9764 4.92921 15.3431 6.02924L16.25 8.75" stroke="#141B34" stroke-width="1.5" stroke-linejoin="round"/>
<path d="M12.9154 3.7474C12.7152 2.74192 12.6151 2.23917 12.3769 1.95162C12.1386 1.66406 11.8221 1.66406 11.1891 1.66406H8.80828C8.17528 1.66406 7.8588 1.66406 7.62054 1.95162C7.38227 2.23917 7.28219 2.74191 7.08203 3.7474" stroke="#141B34" stroke-width="1.5" stroke-linejoin="round"/>
<path d="M3.7513 8.75H16.2513C17.049 9.54767 18.3346 10.6585 18.3346 11.8978V14.6293C18.3346 15.0783 18.0184 15.4562 17.5986 15.5087L15.0013 15.8333H5.0013L2.40394 15.5087C1.98426 15.4562 1.66797 15.0783 1.66797 14.6293V11.8978C1.66797 10.6585 2.95363 9.54767 3.7513 8.75Z" stroke="#141B34" stroke-width="1.5" stroke-linejoin="round"/>
</svg>
