<svg width="16" height="16" viewBox="0 0 16 16" fill="none" xmlns="http://www.w3.org/2000/svg">
<path d="M11.9987 11.0026L13.9987 1.33594C13.9987 1.33594 10.4987 2.0026 10.4987 3.33594C10.4987 4.16927 11.832 4.66927 11.332 5.16927C10.832 5.66927 8.9987 6.16927 8.9987 7.5026C8.9987 8.33594 9.54536 8.95594 8.9987 9.5026C8.4987 10.0026 7.9987 9.7406 7.16536 9.5026C6.23203 9.23594 4.33203 9.0026 3.66536 9.16927C2.9987 9.33594 2.33203 9.66927 2.33203 10.6693C2.33203 11.2193 2.66536 11.8359 3.4987 12.0026C4.33203 12.1693 5.33203 11.3359 6.66536 11.3359C7.9987 11.3359 9.66536 12.3359 10.6654 12.3359C11.6654 12.3359 11.9987 11.0026 11.9987 11.0026Z" stroke="black" stroke-linejoin="round"/>
<path d="M3.66406 12L2.66406 14.6667H13.6641L11.6641 12" stroke="black" stroke-linejoin="round"/>
</svg>
