<svg width="12" height="12" viewBox="0 0 12 12" fill="none" xmlns="http://www.w3.org/2000/svg">
<path d="M10.5741 5.67163C11.033 5.32453 10.7875 4.5931 10.2122 4.5931H7.86252C7.59942 4.5931 7.36701 4.42169 7.28929 4.17032L6.57323 1.85416C6.39895 1.29045 5.60104 1.29045 5.42677 1.85416L4.71071 4.17032C4.63299 4.42169 4.40058 4.5931 4.13748 4.5931H1.76983C1.19632 4.5931 0.949679 5.32063 1.40495 5.6694L3.36916 7.17413C3.56808 7.32652 3.65135 7.58649 3.57798 7.82609L2.84841 10.2089C2.6775 10.7671 3.32357 11.2159 3.787 10.8608L5.63512 9.44504C5.85042 9.28011 6.14958 9.28011 6.36488 9.44504L8.20601 10.8555C8.6701 11.211 9.3168 10.7605 9.14412 10.202L8.40427 7.80884C8.32968 7.56758 8.41414 7.30544 8.61554 7.1531L10.5741 5.67163Z" fill="#FFAD33"/>
</svg>
