<svg width="16" height="16" viewBox="0 0 16 16" fill="none" xmlns="http://www.w3.org/2000/svg">
<path d="M1.33203 3.96097C3.66536 6.24875 7.04903 5.26827 7.8203 3.96097C7.93376 3.76867 7.9987 3.54543 7.9987 3.30731C7.9987 2.5853 7.40176 2 6.66536 2C5.92898 2 5.33203 2.5853 5.33203 3.30731" stroke="black" stroke-linecap="round"/>
<path d="M11.3346 5.95209C11.3346 4.87398 12.0808 4 13.0013 4C13.9218 4 14.668 4.87398 14.668 5.95209C14.668 6.43013 14.5212 6.86807 14.2777 7.2074C12.8988 9.461 6.18557 8.61093 2.66797 7.9042" stroke="black" stroke-linecap="round"/>
<path d="M8.7223 13.2556C8.85956 13.6878 9.22996 13.9974 9.66536 13.9974C10.2176 13.9974 10.6654 13.4993 10.6654 12.8847C10.6654 12.6758 10.6136 12.4803 10.5236 12.3133C9.6653 10.6591 5.332 9.54666 1.33203 12.5138" stroke="black" stroke-linecap="round"/>
<path d="M12.668 10.3359H14.0013" stroke="black" stroke-linecap="round" stroke-linejoin="round"/>
</svg>
